<?xml version="1.0" encoding="UTF-8"?>
<svg xmlns="http://www.w3.org/2000/svg" xmlns:xlink="http://www.w3.org/1999/xlink" viewBox="0 0 60 60" width="60px" height="60px">
<g id="surface52935707">
<path style="fill-rule:nonzero;fill:rgb(0%,0%,0%);fill-opacity:1;stroke-width:1;stroke-linecap:butt;stroke-linejoin:round;stroke:rgb(80.000001%,80.000001%,80.000001%);stroke-opacity:1;stroke-miterlimit:10;" d="M 173.272341 97.931916 C 173.272341 115.984073 166.861018 132.573739 156.20995 145.558883 L 201.192616 190.541548 C 203.157376 192.432445 203.955098 195.239245 203.260784 197.868774 C 202.581243 200.513075 200.513075 202.581243 197.868774 203.260784 C 195.239245 203.955098 192.432445 203.157376 190.541548 201.192616 L 145.558883 156.20995 C 132.573739 166.861018 115.984073 173.272341 97.931916 173.272341 C 56.420819 173.272341 22.606264 139.443013 22.606264 97.931916 C 22.606264 56.420819 56.420819 22.606264 97.931916 22.606264 C 139.443013 22.606264 173.272341 56.420819 173.272341 97.931916 Z M 37.659576 97.931916 C 37.659576 131.303292 64.56054 158.204256 97.931916 158.204256 C 131.303292 158.204256 158.204256 131.303292 158.204256 97.931916 C 158.204256 64.56054 131.303292 37.659576 97.931916 37.659576 C 64.56054 37.659576 37.659576 64.56054 37.659576 97.931916 Z M 37.659576 97.931916 " transform="matrix(0.264425,0,0,0.264425,0.12,0.12)"/>
<path style=" stroke:none;fill-rule:nonzero;fill:rgb(0%,0%,0%);fill-opacity:1;" d="M 26.015625 6.097656 C 15.039062 6.097656 6.097656 15.039062 6.097656 26.015625 C 6.097656 36.992188 15.039062 45.9375 26.015625 45.9375 C 30.789062 45.9375 35.175781 44.242188 38.609375 41.425781 L 50.503906 53.320312 C 51.003906 53.839844 51.746094 54.050781 52.441406 53.867188 C 53.140625 53.6875 53.6875 53.140625 53.867188 52.441406 C 54.050781 51.746094 53.839844 51.003906 53.320312 50.503906 L 41.425781 38.609375 C 44.242188 35.175781 45.9375 30.789062 45.9375 26.015625 C 45.9375 15.039062 36.992188 6.097656 26.015625 6.097656 Z M 26.015625 10.078125 C 34.839844 10.078125 41.953125 17.191406 41.953125 26.015625 C 41.953125 34.839844 34.839844 41.953125 26.015625 41.953125 C 17.191406 41.953125 10.078125 34.839844 10.078125 26.015625 C 10.078125 17.191406 17.191406 10.078125 26.015625 10.078125 Z M 26.015625 10.078125 "/>
</g>
</svg>
