<?xml version="1.0" encoding="UTF-8"?>
<svg xmlns="http://www.w3.org/2000/svg" xmlns:xlink="http://www.w3.org/1999/xlink" viewBox="0 0 60 60" width="60px" height="60px">
<g id="surface52935539">
<path style="fill-rule:nonzero;fill:rgb(0%,0%,0%);fill-opacity:1;stroke-width:8;stroke-linecap:butt;stroke-linejoin:round;stroke:rgb(80.000001%,80.000001%,80.000001%);stroke-opacity:1;stroke-miterlimit:10;" d="M 173.270684 97.936134 C 173.270684 115.985354 166.858261 132.572359 156.211506 145.564751 L 201.189857 190.543102 C 203.154709 192.431797 203.946742 195.234376 203.261329 197.86941 C 202.575916 200.519675 200.519675 202.575916 197.86941 203.261329 C 195.234376 203.946742 192.431797 203.154709 190.543102 201.189857 L 145.564751 156.211506 C 132.572359 166.858261 115.985354 173.270684 97.936134 173.270684 C 56.415312 173.270684 22.601584 139.456955 22.601584 97.936134 C 22.601584 56.415312 56.415312 22.601584 97.936134 22.601584 C 139.456955 22.601584 173.270684 56.415312 173.270684 97.936134 Z M 37.665447 97.936134 C 37.665447 131.308152 64.564116 158.20682 97.936134 158.20682 C 131.308152 158.20682 158.20682 131.308152 158.20682 97.936134 C 158.20682 64.564116 131.308152 37.665447 97.936134 37.665447 C 64.564116 37.665447 37.665447 64.564116 37.665447 97.936134 Z M 37.665447 97.936134 " transform="matrix(0.25646,0,0,0.25646,1.02,1.02)"/>
<path style=" stroke:none;fill-rule:nonzero;fill:rgb(0%,0%,0%);fill-opacity:1;" d="M 26.136719 6.816406 C 15.488281 6.816406 6.816406 15.488281 6.816406 26.136719 C 6.816406 36.785156 15.488281 45.457031 26.136719 45.457031 C 30.765625 45.457031 35.019531 43.8125 38.351562 41.082031 L 49.886719 52.617188 C 50.371094 53.121094 51.089844 53.324219 51.765625 53.148438 C 52.445312 52.972656 52.972656 52.445312 53.148438 51.765625 C 53.324219 51.089844 53.121094 50.371094 52.617188 49.886719 L 41.082031 38.351562 C 43.8125 35.019531 45.457031 30.765625 45.457031 26.136719 C 45.457031 15.488281 36.785156 6.816406 26.136719 6.816406 Z M 26.136719 10.679688 C 34.695312 10.679688 41.59375 17.578125 41.59375 26.136719 C 41.59375 34.695312 34.695312 41.59375 26.136719 41.59375 C 17.578125 41.59375 10.679688 34.695312 10.679688 26.136719 C 10.679688 17.578125 17.578125 10.679688 26.136719 10.679688 Z M 26.136719 10.679688 "/>
</g>
</svg>
