<?xml version="1.0" encoding="UTF-8"?><svg version="1.1" xmlns="http://www.w3.org/2000/svg" xmlns:xlink="http://www.w3.org/1999/xlink" viewBox="0 0 1500 1500" width="1500" height="1500" x="0px" y="0px">
    
    
    <!-- ITEM 0 -->
    <g>
        <defs>
            <clipPath id="clip-path-id-viewbox-item-0">
                <rect x="0.0" y="0.0" width="0.0" height="0.0"/>
            </clipPath>
        </defs>
        <g transform="translate(0.0 0.0) rotate(0.0 0.5 0.5) scale(Infinity Infinity)">
            <g clip-path="url(#clip-path-id-viewbox-item-0)" transform="translate(-0.0 -0.0)">
                
            </g>
        </g>
    </g>
    
    <!-- ITEM 1 -->
    <g>
        <defs>
            <clipPath id="clip-path-id-viewbox-item-1">
                <rect x="0.0" y="0.0" width="270.993" height="517.85"/>
            </clipPath>
        </defs>
        <g transform="translate(855.0 136.0) rotate(0.0 -335.0 641.0) scale(-2.472388585683025 2.4756203533841843)">
            <g clip-path="url(#clip-path-id-viewbox-item-1)" transform="translate(-0.0 -0.0)">
                
<g>
	<path style="fill:#115693;" d="M270.993,517.85H0V0h61.988c115.43,0,209.005,93.575,209.005,209.005V517.85z"/>
</g>

            </g>
        </g>
    </g>
    
    <!-- ITEM 2 -->
    <g>
        <defs>
            <clipPath id="clip-path-id-viewbox-item-2">
                <rect x="0.0" y="0.0" width="245.604" height="461.473"/>
            </clipPath>
        </defs>
        <g transform="translate(578.0 66.0) rotate(0.0 360.0 676.5) scale(2.931548346118141 2.9319158433971215)">
            <g clip-path="url(#clip-path-id-viewbox-item-2)" transform="translate(-0.0 -0.0)">
                
<g>
	<g>
		<path style="fill:#050c04;" d="M97.761,0.003V0h-0.449h-1.016H0v461.115l245.604,0.358V148.292    C245.604,66.543,179.454,0.245,97.761,0.003z"/>
	</g>
</g>

            </g>
        </g>
    </g>
    
    <!-- ITEM 3 -->
    <g>
        <defs>
            <clipPath id="clip-path-id-viewbox-item-3">
                <rect x="0.0" y="0.0" width="189.089" height="14.0"/>
            </clipPath>
        </defs>
        <g transform="translate(893.0 1291.0) rotate(31.37977990517674 100.0 6.0) scale(1.057702986424382 0.8571428571428571)">
            <g clip-path="url(#clip-path-id-viewbox-item-3)" transform="translate(-0.0 -0.0)">
                
<g>
	<rect x="0" y="0" style="fill:#EE442B;" width="189.089" height="14"/>
</g>

            </g>
        </g>
    </g>
    
    <!-- ITEM 4 -->
    <g>
        <defs>
            <clipPath id="clip-path-id-viewbox-item-4">
                <rect x="0.0" y="0.0" width="189.089" height="14.0"/>
            </clipPath>
        </defs>
        <g transform="translate(873.0 1324.0) rotate(31.37977990517674 100.0 6.0) scale(1.057702986424382 0.8571428571428571)">
            <g clip-path="url(#clip-path-id-viewbox-item-4)" transform="translate(-0.0 -0.0)">
                
<g>
	<rect x="0" y="0" style="fill:#EE442B;" width="189.089" height="14"/>
</g>

            </g>
        </g>
    </g>
    
    <!-- ITEM 5 -->
    <g>
        <defs>
            <clipPath id="clip-path-id-viewbox-item-5">
                <rect x="0.0" y="0.0" width="0.0" height="0.0"/>
            </clipPath>
        </defs>
        <g transform="translate(0.0 0.0) rotate(0.0 0.5 0.5) scale(Infinity Infinity)">
            <g clip-path="url(#clip-path-id-viewbox-item-5)" transform="translate(-0.0 -0.0)">
                
            </g>
        </g>
    </g>
    
    <!-- ITEM 6 -->
    <g>
        <defs>
            <clipPath id="clip-path-id-viewbox-item-6">
                <rect x="0.0" y="0.0" width="230.725" height="281.396"/>
            </clipPath>
        </defs>
        <g transform="translate(844.0 654.0) rotate(5.518315795302811 265.0 323.5) scale(2.297106945497887 2.2992508777665637)">
            <g clip-path="url(#clip-path-id-viewbox-item-6)" transform="translate(-0.0 -0.0)">
                
<g>
	<g>
		<polygon style="fill:#ffeea6;" points="126.198,281.396 0,213.517 80.802,24.634 228.006,86.456   "/>
	</g>
	<g>
		<polygon style="fill:#ffeea6;" points="228.006,86.456 230.725,78.396 184.835,0 160.297,58   "/>
	</g>
	<g>
		<polygon style="fill:#115693;" points="99.429,32.506 116,29.956 222.918,78.555 220.528,83.813   "/>
	</g>
	<g>
		<polygon style="fill:#115693;" points="222.878,78.555 188.5,22.786 172.725,57.124   "/>
	</g>
	<g>
		<circle style="fill:#108E82;" cx="106.758" cy="150.896" r="54.176"/>
	</g>
</g>

            </g>
        </g>
    </g>
    
    <!-- ITEM 7 -->
    <g>
        <defs>
            <clipPath id="clip-path-id-viewbox-item-7">
                <rect x="0.0" y="0.0" width="47.53" height="77.59"/>
            </clipPath>
        </defs>
        <g transform="translate(497.0 50.0) rotate(0.0 80.0 131.5) scale(3.366294971596886 3.389612063410233)">
            <g clip-path="url(#clip-path-id-viewbox-item-7)" transform="translate(-0.0 -0.0)">
                <title>light_bulb_2</title><g id="Layer_2-i3" data-name="Layer 2"><g id="light_bulb_2-i3"><path d="M23.76,0C10.81,0,0,9.35,0,20.87c0,19.59,14.92,18.93,14.92,37H32.6c0-18,14.93-17.36,14.93-36.95C47.53,9.35,36.72,0,23.76,0Z" style="fill:#ffeea6;"/><path d="M14.92,57.82H32.6a0,0,0,0,1,0,0V68.75a8.84,8.84,0,0,1-8.84,8.84h0a8.84,8.84,0,0,1-8.84-8.84V57.82a0,0,0,0,1,0,0Z" style="fill:#108e82;"/></g></g>
            </g>
        </g>
    </g>
    
    <!-- ITEM 8 -->
    <g>
        <defs>
            <clipPath id="clip-path-id-viewbox-item-8">
                <rect x="0.0" y="0.0" width="388.5" height="411.9"/>
            </clipPath>
        </defs>
        <g transform="translate(150.0 320.0) rotate(0.0 518.5 550.0) scale(2.6692406692406694 2.670551104637048)">
            <g clip-path="url(#clip-path-id-viewbox-item-8)" transform="translate(-0.0 -0.0)">
                

<g>
	<g>
		<path d="M83.6,98.6c-16.4-32.5,21.5-70.1,57.9-69.1c1.7,0,3.4,0.2,5.1,0.3l10.1,0.7c35.4,1,63.7,30.2,62.7,65.6    l0.1,33.2l-16.8-0.2l-0.2,28.5l-8.7-0.2l-0.1,8.8c-0.3,12.6-10.7,22.7-23.3,22.5l-7.4-0.1l-1.4,26.6L99,213.8l0.7-59    C76.9,143.9,93.9,119.1,83.6,98.6z" style="fill:#FFC1A3;"/>
	</g>
</g>
<g>
	<g>
		<circle cx="181.4" cy="106.2" r="6.7" style="fill:#0F0F0E;"/>
	</g>
</g>
<g>
	<g>
		<path d="M98.9,212.6h43.7c49.7,0,90,40.3,90,90v108.8H98.9V212.6z" style="fill:#EE442B;"/>
	</g>
</g>
<g>
	<path d="M174.9,21C96.2-5.6,77,34.2,73.7,47.8C34,66.2,61,107.8,71,125.4c2.8,5,5.2,10.3,7.1,15.7l5.3,38.8l16,0.1   l0.6-22l-4.8-39.4c48.7-5.2,25.6-68.8,25.6-68.8c59.4,16.7,92.4-11,92.4-11S180.5,22.7,174.9,21z" style="fill:#050C04;"/>
</g>
<g>
	<g>
		<circle cx="104.2" cy="132.9" r="16.8" style="fill:#FFC1A3;"/>
	</g>
</g>
<g>
	<g>
		<rect x="97.9" y="333.9" width="51.9" height="78.1" style="fill:#FFC1A3;"/>
	</g>
</g>
<g>
	<path d="M203.6,107.3c-1.9,0-3.4-1.5-3.5-3.4c-0.1-1.9,1.5-3.5,3.4-3.6l15.2-0.4c1.9-0.1,3.5,1.5,3.6,3.4s-1.5,3.5-3.4,3.6   l-15.2,0.4C203.6,107.3,203.6,107.3,203.6,107.3z"/>
</g>
<g>
	<path d="M106.5,114c-1.3,0-2.6-0.7-3.2-2c-0.8-1.7-0.1-3.8,1.6-4.7l12.6-6c12.1-5.8,26-7.5,39.2-4.7c1.9,0.4,3.1,2.3,2.7,4.2   s-2.3,3.1-4.2,2.7c-11.6-2.5-24-1-34.7,4.2l-12.6,6C107.6,113.9,107,114,106.5,114z"/>
</g>
<g>
	<path d="M156.2,130.9l-1.1-47.3l51.1-1.2l1.1,47.3L156.2,130.9z M166.4,94.4l0.6,25.3l29.2-0.7l-0.6-25.3L166.4,94.4z" style="fill:#ef0c3c;"/>
</g>
<g>
	<path d="M122,12.2c0,0,41.4-0.1,59.2-12.2C181.2,0,185.6,38.1,122,12.2z" style="fill:#050C04;"/>
</g>
<g>
	<path d="M99.4,411.9H11.7l0.5-80.8l0,0c-6.7,0-12.2-5.5-12.2-12.2v-3.6c0-44.4,36-80.3,80.3-80.3h19.1V411.9z" style="fill:#108E82;"/>
</g>
<g>
	<path d="M218.7,390.9l-33-1.8c2.6-46-6.8-79.5-27.8-99.6c-25.5-24.4-61.2-21.2-61.6-21.2l-3.5-32.9   c2.1-0.2,50.7-5.1,87.6,29.8C209,292.2,221.8,334.5,218.7,390.9z" style="fill:#108E82;"/>
</g>
<g>
	<circle cx="56.2" cy="288.6" r="11" style="fill:#FFEEA6;"/>
</g>
<g>
	<rect x="149.9" y="310.7" width="7" height="100.8" style="fill:#050C04;"/>
</g>
<g>
	<rect x="41.8" y="357.5" width="7" height="54.3" style="fill:#050C04;"/>
</g>
<path d="M387,261.9c-2.3-3.2-6.5-4.1-10-2.4l4.2-3.1c3.5-2.6,4.3-7.5,1.8-11.1c-2.6-3.6-7.5-4.3-11.1-1.8l-8.1,5.9  c2.7-2.7,3.1-7,0.8-10.2c-2.6-3.6-7.5-4.3-11.1-1.8l-46.6,33.8l1.9-9.4c1.1-5.6-2.5-11-8.1-12.1c-5.6-1.1-11,2.5-12.1,8.1l-6.7,33.3  c-2.1,3.6-3.1,7.7-2.9,11.8l-136.6,109l89.4-0.1l84.3-71.7l21.9-15.1l0.1,0.1l3.8-2.7l0.4-0.3l0,0l33.9-24.4  c3.6-2.6,4.3-7.5,1.8-11.1c-1.7-2.3-4.4-3.4-7-3.2l14.3-10.4C388.8,270.4,389.6,265.4,387,261.9z" style="fill:#FFC1A3;"/>

            </g>
        </g>
    </g>
    
    <!-- ITEM 9 -->
    <g>
        <defs>
            <clipPath id="clip-path-id-viewbox-item-9">
                <rect x="0.0" y="0.0" width="391.467" height="142.8"/>
            </clipPath>
        </defs>
        <g transform="translate(750.0 660.0) rotate(118.91672345525328 168.5 60.5) scale(0.8608643895909489 0.8473389355742297)">
            <g clip-path="url(#clip-path-id-viewbox-item-9)" transform="translate(-0.0 -0.0)">
                <path d="M386.516,141.9h-.7c-37.1-4.9-67.3-27-92.2-67.8-24.6-40.1-61.7-64-99.2-64s-74.7,23.9-99.2,64c-21,34.2-55.2,59.8-89.2,66.8a5,5,0,1,1-2-9.8c31.4-6.5,63.1-30.3,82.7-62.3,26.4-43.1,66.7-68.8,107.7-68.8s81.4,25.7,107.7,68.8c23.3,38,51.1,58.6,85,63.1a5.024,5.024,0,0,1-.6,10Z" fill="#115693"/><path d="M194.416,142.8c-41.1,0-81.4-25.7-107.7-68.8-19.6-31.9-51.3-55.8-82.7-62.3a5.074,5.074,0,0,1-3.9-5.9,5,5,0,0,1,5.9-3.9c34.1,7,68.2,32.6,89.2,66.8,24.6,40.1,61.7,64,99.2,64s74.7-23.9,99.2-64c25-40.7,55.1-62.9,92.2-67.8a5.029,5.029,0,0,1,5.6,4.3,5.029,5.029,0,0,1-4.3,5.6c-33.9,4.5-61.7,25.1-85,63.1C275.716,117.1,235.416,142.8,194.416,142.8Z" fill="#115693"/><path d="M22.016,135.8a4.951,4.951,0,0,1-5-5V12a5,5,0,0,1,10,0V130.8A4.951,4.951,0,0,1,22.016,135.8Z" fill="#115693"/><path d="M56.616,115.3a4.951,4.951,0,0,1-5-5V32.5a5,5,0,0,1,10,0v77.8A4.951,4.951,0,0,1,56.616,115.3Z" fill="#115693"/><path d="M125.916,116.9a4.951,4.951,0,0,1-5-5V31.4a5,5,0,0,1,10,0v80.5A5.081,5.081,0,0,1,125.916,116.9Z" fill="#115693"/><path d="M160.516,136.8a4.951,4.951,0,0,1-5-5V11.1a5,5,0,1,1,10,0V131.7A5.1,5.1,0,0,1,160.516,136.8Z" fill="#115693"/><path d="M195.116,142.8a4.951,4.951,0,0,1-5-5V5.1a5,5,0,1,1,10,0V137.8A4.951,4.951,0,0,1,195.116,142.8Z" fill="#115693"/><path d="M195.116,142.8a4.951,4.951,0,0,1-5-5V5.1a5,5,0,1,1,10,0V137.8A4.951,4.951,0,0,1,195.116,142.8Z" fill="#115693"/><path d="M229.716,136.2a4.951,4.951,0,0,1-5-5V11.7a5,5,0,1,1,10,0V131.2A4.951,4.951,0,0,1,229.716,136.2Z" fill="#115693"/><path d="M264.316,115a4.951,4.951,0,0,1-5-5V32.3a5,5,0,0,1,10,0V110A4.951,4.951,0,0,1,264.316,115Z" fill="#115693"/><path d="M333.616,118.8a4.951,4.951,0,0,1-5-5V29.2a5,5,0,1,1,10,0v84.6A5.081,5.081,0,0,1,333.616,118.8Z" fill="#115693"/><path d="M368.216,137.8a4.951,4.951,0,0,1-5-5V10.1a5,5,0,0,1,10,0V132.7A5.1,5.1,0,0,1,368.216,137.8Z" fill="#115693"/>
            </g>
        </g>
    </g>
    
    <!-- ITEM 10 -->
    <g>
        <defs>
            <clipPath id="clip-path-id-viewbox-item-10">
                <rect x="0.0" y="0.0" width="91.003" height="60.73"/>
            </clipPath>
        </defs>
        <g transform="translate(261.0 557.0) rotate(-28.260688959648125 134.5 89.0) scale(2.9559465072580027 2.931006092540754)">
            <g clip-path="url(#clip-path-id-viewbox-item-10)" transform="translate(-0.0 -0.0)">
                
<g>
	<g>
		
			<rect x="39.302" y="-8.495" transform="matrix(-0.5463 -0.8376 0.8376 -0.5463 45.915 82.8433)" style="fill:#108E82;" width="12.184" height="74.963"/>
	</g>
	<g>
		<path style="fill:#EE442B;" d="M0.987,57.974L0.987,57.974c1.832,2.809,5.595,3.601,8.404,1.769l8.002-5.22l-6.635-10.173    l-8.002,5.22C-0.053,51.402-0.845,55.165,0.987,57.974z"/>
	</g>
	<g>
		<polygon style="fill:#FFEEA6;" points="80.116,13.613 91.003,0 73.459,3.407   "/>
	</g>
	<g>
		<polygon style="fill:#050C04;" points="81.698,1.807 85.228,7.22 91.002,0   "/>
	</g>
	<g>
		
			<rect x="8.596" y="45.979" transform="matrix(-0.5463 -0.8376 0.8376 -0.5463 -16.8621 88.0076)" style="fill:#FFEEA6;" width="13.615" height="5.183"/>
	</g>
</g>

            </g>
        </g>
    </g>
    
    <!-- ITEM 11 -->
    <g>
        <defs>
            <clipPath id="clip-path-id-viewbox-item-11">
                <rect x="0.0" y="0.0" width="56.353" height="42.265"/>
            </clipPath>
        </defs>
        <g transform="translate(1173.0 1296.0) rotate(-56.950489628077655 53.5 40.5) scale(1.8987454084077156 1.9164793564415001)">
            <g clip-path="url(#clip-path-id-viewbox-item-11)" transform="translate(-0.0 -0.0)">
                
<g>
	<g>
		<path style="fill:#108e82;" d="M30.692,42.265L0,1.656L56.353,0L30.692,42.265z M16.809,9.716L29.92,27.062L40.881,9.008    L16.809,9.716z"/>
	</g>
</g>

            </g>
        </g>
    </g>
    
    <!-- ITEM 12 -->
    <g>
        <defs>
            <clipPath id="clip-path-id-viewbox-item-12">
                <rect x="0.0" y="0.0" width="108.312" height="86.543"/>
            </clipPath>
        </defs>
        <g transform="translate(903.0 231.0) rotate(-83.23152614834926 206.0 165.0) scale(3.8038259841938107 3.8131333556729023)">
            <g clip-path="url(#clip-path-id-viewbox-item-12)" transform="translate(-0.0 -0.0)">
                
<g>
	<g>
		<path style="fill:#115693;" d="M2.502,79.515L2.502,79.515c-4.655-7.154-2.629-16.727,4.525-21.382L84.269,7.877l16.856,25.907    L23.884,84.04C16.73,88.695,7.157,86.669,2.502,79.515z"/>
	</g>
	<g>
		<path style="fill:#EE442B;" d="M10.258,74.48L10.258,74.48c-3.032-4.66-1.712-10.895,2.948-13.927l42.891-27.907l10.98,16.875    L24.185,77.427C19.525,80.459,13.29,79.14,10.258,74.48z"/>
	</g>
	<g>
		<circle style="fill:#115693;" cx="55.272" cy="34.266" r="3.975"/>
	</g>
	<g>
		<circle style="fill:#115693;" cx="64.658" cy="49.609" r="4.007"/>
	</g>
	<g>
		<circle style="fill:#115693;" cx="37.933" cy="50.926" r="3.577"/>
	</g>
	<g>
		<path style="fill:#115693;" d="M93.881,40.643L75.331,12.131c-2.364-3.634-1.335-8.496,2.299-10.86l0,0    c3.634-2.364,8.496-1.335,10.86,2.299l18.551,28.511c2.364,3.634,1.335,8.496-2.299,10.86l0,0    C101.108,45.306,96.246,44.277,93.881,40.643z"/>
	</g>
	<g>
		<circle style="fill:#EE442B;" cx="65.346" cy="43.114" r="4.497"/>
	</g>
	<g>
		<circle style="fill:#EE442B;" cx="68.364" cy="32.76" r="2.698"/>
	</g>
	<g>
		<circle style="fill:#EE442B;" cx="84.053" cy="31.486" r="5.006"/>
	</g>
	<g>
		<circle style="fill:#EE442B;" cx="69.953" cy="44.798" r="2.698"/>
	</g>
	<g>
		<circle style="fill:#EE442B;" cx="94.737" cy="14.64" r="8.843"/>
	</g>
</g>

            </g>
        </g>
    </g>
    
    <!-- ITEM 13 -->
    <g>
        <defs>
            <clipPath id="clip-path-id-viewbox-item-13">
                <rect x="0.0" y="0.0" width="124.536" height="115.517"/>
            </clipPath>
        </defs>
        <g transform="translate(735.0 303.0) rotate(-9.772302290505314 116.0 107.5) scale(1.8629151410034046 1.8611979189210246)">
            <g clip-path="url(#clip-path-id-viewbox-item-13)" transform="translate(-0.0 -0.0)">
                
<g>
	<g>
		<path style="fill:#115693;" d="M55.185,27.441L34.964,11.953c2.301-3.323,1.617-7.898-1.626-10.382    c-3.342-2.56-8.126-1.925-10.686,1.417L1.571,30.512c-2.56,3.342-1.925,8.127,1.417,10.686c3.243,2.484,7.839,1.952,10.447-1.135    l20.187,15.461c-5.199,18.378,0.924,38.88,17.01,51.2c3.889,2.979,8.089,5.271,12.453,6.895    c12.74,4.742,27.092,0.36,35.358-10.432l19.61-25.604c8.353-10.906,8.709-26.055,0.639-37.171    c-2.716-3.741-6.023-7.15-9.903-10.087C92.803,18.227,71.486,17.756,55.185,27.441z"/>
	</g>
	<g>
		<path style="fill:#108E82;" d="M49.206,83.51l36.36-48.026c0,0,28.303,6.826,23.684,30.204c-0.787,3.983-2.522,7.718-4.945,10.975    l-8.889,11.95c-3.781,5.082-9.145,8.832-15.292,10.363C71.656,101.085,60.026,99.617,49.206,83.51z"/>
	</g>
	<g>
		<circle style="fill:#115693;" cx="62.056" cy="68.152" r="5.809"/>
	</g>
	<g>
		<circle style="fill:#115693;" cx="66.254" cy="83.445" r="3.227"/>
	</g>
	<g>
		<circle style="fill:#115693;" cx="107.488" cy="51.671" r="5.578"/>
	</g>
	<g>
		<circle style="fill:#115693;" cx="75.176" cy="71.871" r="1.798"/>
	</g>
	<g>
		<circle style="fill:#108E82;" cx="71.133" cy="53.772" r="4.211"/>
	</g>
	<g>
		<circle style="fill:#108E82;" cx="59.067" cy="52.39" r="2.889"/>
	</g>
	<g>
		<circle style="fill:#108E82;" cx="55.585" cy="41.771" r="1.558"/>
	</g>
	<g>
		<circle style="fill:#108E82;" cx="75.871" cy="47.181" r="6.239"/>
	</g>
	<g>
		<circle style="fill:#108E82;" cx="47.055" cy="43.412" r="7.538"/>
	</g>
</g>

            </g>
        </g>
    </g>
    
    <!-- ITEM 14 -->
    <g>
        <defs>
            <clipPath id="clip-path-id-viewbox-item-14">
                <rect x="0.0" y="0.0" width="14.745" height="14.745"/>
            </clipPath>
        </defs>
        <g transform="translate(837.0 119.0) rotate(0.0 47.0 47.0) scale(6.375042387249915 6.375042387249915)">
            <g clip-path="url(#clip-path-id-viewbox-item-14)" transform="translate(-0.0 -0.0)">
                
<g>
	<g>
		<circle style="fill:#ee442b;" cx="7.372" cy="7.372" r="7.372"/>
	</g>
</g>

            </g>
        </g>
    </g>
    
    <!-- ITEM 15 -->
    <g>
        <defs>
            <clipPath id="clip-path-id-viewbox-item-15">
                <rect x="0.0" y="0.0" width="51.8" height="51.8"/>
            </clipPath>
        </defs>
        <g transform="translate(282.0 826.0) rotate(0.0 45.0 45.0) scale(1.7374517374517375 1.7374517374517375)">
            <g clip-path="url(#clip-path-id-viewbox-item-15)" transform="translate(-0.0 -0.0)">
                

<g>
	<g>
		<path d="M25.9,51.8C11.6,51.8,0,40.2,0,25.9C0,11.6,11.6,0,25.9,0s25.9,11.6,25.9,25.9C51.8,40.2,40.2,51.8,25.9,51.8    z M25.9,11.8c-7.8,0-14.1,6.3-14.1,14.1c0,7.8,6.3,14.1,14.1,14.1S40,33.7,40,25.9C40,18.1,33.7,11.8,25.9,11.8z" style="fill:#050C04;"/>
	</g>
</g>

            </g>
        </g>
    </g>
    
    <!-- ITEM 16 -->
    <g>
        <defs>
            <clipPath id="clip-path-id-viewbox-item-16">
                <rect x="0.0" y="0.0" width="11.263" height="11.263"/>
            </clipPath>
        </defs>
        <g transform="translate(364.0 600.0) rotate(0.0 58.5 58.5) scale(10.387996093403178 10.387996093403178)">
            <g clip-path="url(#clip-path-id-viewbox-item-16)" transform="translate(-0.0 -0.0)">
                
<g>
	<g>
		<circle style="fill:#FFC1A3;" cx="5.632" cy="5.632" r="5.632"/>
	</g>
</g>

            </g>
        </g>
    </g>
    
</svg>