<?xml version="1.0" encoding="UTF-8"?><svg xmlns="http://www.w3.org/2000/svg" viewBox="0 0 125.457 124.121" x="0px" y="0px" width="126px" height="125px" version="1.1" xmlns:xlink="http://www.w3.org/1999/xlink"><title>Ресурс 82</title><g id="Слой_2" data-name="Слой 2"><g id="Слой_8" data-name="Слой 8"><path d="M119.545,100.718a5.9,5.9,0,0,0-.194-1.035,4.844,4.844,0,0,1,0-2.716,4.892,4.892,0,0,0,0-3.041,4.848,4.848,0,0,1,0-2.717,5.793,5.793,0,0,0,0-2.975,5.078,5.078,0,0,1,0-2.782,13.891,13.891,0,0,0,.064-2.846,1.4,1.4,0,0,0-.84-1.423c-.389-.194-.324-.324,0-.582,1.164-.841,1.164-1.812,0-2.653-.389-.258-.324-.388.064-.582a1.621,1.621,0,0,0,.841-1.294c.065-.776-1.229-1.293-1.035-1.617.453-.582,1.035-1.035,1.035-1.746a13.345,13.345,0,0,0-.065-2.782c-.064-.259-.129-.453-.194-.711l-.258-1.488-.777-.259a2.929,2.929,0,0,1-1.617-1.164.063.063,0,0,1-.064-.065c-.518-.323-1.294.323-1.618.065s-.258-1.165-.841-1.488a14.551,14.551,0,0,0-2.781-1.488A4.433,4.433,0,0,1,109.13,62.1a5.963,5.963,0,0,0-2.781-1.553,4.63,4.63,0,0,1-2.2-1.229,5.468,5.468,0,0,0-2.717-1.552A4.084,4.084,0,0,1,99.1,56.407a5.472,5.472,0,0,0-2.523-1.423A4.8,4.8,0,0,1,94.058,53.5a11.176,11.176,0,0,0-2.393-1.424.945.945,0,0,0-.453-.129l-.324.647a4.358,4.358,0,0,1,.194-1.811,4.879,4.879,0,0,0,0-3.041,4.866,4.866,0,0,1,0-2.717,5.793,5.793,0,0,0,0-2.975,5.1,5.1,0,0,1,0-2.782,10.9,10.9,0,0,0,.065-2.911,1.492,1.492,0,0,0-.841-1.423c-.388-.194-.323-.323,0-.582,1.164-.841,1.164-1.811,0-2.652-.388-.259-.323-.388.065-.582a1.791,1.791,0,0,0,.841-1.294c.064-.776-1.229-1.294-1.035-1.617.453-.583,1.035-1.035,1.035-1.747a10.009,10.009,0,0,0-.065-2.781c-.065-.259-.129-.518-.194-.712l-.259-1.488-.776-.259A3.168,3.168,0,0,1,88.3,20.053a.064.064,0,0,1-.065-.065c-.517-.323-1.294.324-1.617.065s-.259-1.164-.841-1.488a13.283,13.283,0,0,0-2.846-1.487,4.434,4.434,0,0,1-2.135-1.23A5.964,5.964,0,0,0,78.015,14.3a4.64,4.64,0,0,1-2.2-1.229A5.469,5.469,0,0,0,73.1,11.514a4.088,4.088,0,0,1-2.329-1.358,5.454,5.454,0,0,0-2.522-1.423A5.254,5.254,0,0,1,65.66,7.245a11.124,11.124,0,0,0-2.393-1.423.935.935,0,0,0-.453-.129l-.97,1.617-.971-1.682-.129.065a11.351,11.351,0,0,0-2.717,1.552,4.442,4.442,0,0,1-2.264,1.294A11.014,11.014,0,0,0,53.5,9.768a2,2,0,0,0-1.164,2.2c-1.294-.711-2.394-.711-2.588.324s-.517,1.1-1.423.776-1.423.453-1.682,2a1.87,1.87,0,0,0-1.876-.323,10.027,10.027,0,0,0-2.652,1.617,4.64,4.64,0,0,1-2.2,1.229,6.088,6.088,0,0,0-2.782,1.617A3.975,3.975,0,0,1,35,20.441a2.726,2.726,0,0,0-1.229.582L32.54,21.8l.065,1.229v1.164A1.891,1.891,0,0,0,33.9,26.328c-1.747,1.164-1.747,2.134,0,3.234-1.812.97-1.553,2.458,0,3.235-.518.258-1.165.582-1.165,1.1,0,1.553-.582,3.1.388,4.658.13.194.065.258-.064.453-.777,1.164-.647,1.617.582,2.587-.518.388-1.035.776-1.035,1.423v3.235a1.352,1.352,0,0,0,.517,1.035c.259.194.388.323.065.646-.97.906-.841,1.682.259,2.459.388.258.323.388,0,.582a1.788,1.788,0,0,0-.841,1.293.484.484,0,0,0,.065.324,6.231,6.231,0,0,0-1.618,1.035,4.442,4.442,0,0,1-2.264,1.294,11.014,11.014,0,0,0-2.264,1.229,1.881,1.881,0,0,0-1.164,2.134c-1.294-.711-2.394-.711-2.588.324s-.517,1.1-1.423.776-1.423.453-1.682,2a1.738,1.738,0,0,0-1.876-.323,10.059,10.059,0,0,0-2.652,1.617,4.635,4.635,0,0,1-2.2,1.229,6.093,6.093,0,0,0-2.782,1.617,3.972,3.972,0,0,1-2.134,1.229A2.712,2.712,0,0,0,6.8,67.34l-1.165.711L5.7,69.28v1.165a1.889,1.889,0,0,0,1.294,2.134c-1.747,1.165-1.747,2.135,0,3.235-1.812.97-1.553,2.458,0,3.234-.518.259-1.165.582-1.165,1.1,0,1.552-.582,3.105.388,4.657.13.194.065.259-.064.453-.777,1.164-.647,1.617.582,2.588-.518.388-1.035.776-1.035,1.423V92.5a1.352,1.352,0,0,0,.517,1.035c.259.194.388.324.065.647-.97.906-.841,1.682.259,2.458.388.259.323.388,0,.582A1.487,1.487,0,0,0,5.7,98.519c-.065.776,1.229,1.423,1.035,1.617a7.831,7.831,0,0,0-.712.776l.971,1.682a1.4,1.4,0,0,0,.711.777,8.2,8.2,0,0,0,2.458,1.293,3.244,3.244,0,0,1,2.2,1.294c.453.518,1.487-.453,1.746.065a2.889,2.889,0,0,0,1.035,1.552c.841.453,1.617.906,2.458,1.359a1.034,1.034,0,0,0,.971.129c.452-.129.517.065.711.388a6.88,6.88,0,0,0,4.076,2.458,1.087,1.087,0,0,0,.646-.194c.324-.194.388-.129.453.259.194,1.423.776,1.811,2.135,1.423.259-.065.388-.129.453.194.453,1.488.97,1.682,2.523,1.1a1.927,1.927,0,0,0,.776,1.552c.517.324,1.229-.129,1.682,0s.388,1.1.9,1.488a1.793,1.793,0,0,0,1.165,0h1.682c.064-.259.194-.517.452-.453a2.7,2.7,0,0,0,1.876-.258,16.383,16.383,0,0,1,1.812-1.035,1.894,1.894,0,0,0,1.164-2.2c1.876.971,2.652.518,2.846-1.488,1.811.906,2.523.518,2.782-1.617.517.324,1.1.712,1.488.453,1.293-.776,2.975-1.035,3.751-2.652.065-.129.13-.259.324-.194,1.358.323,1.94-.453,2-1.811a1.957,1.957,0,0,0,1.747.258,10.432,10.432,0,0,0,2.717-1.617A4.724,4.724,0,0,1,61,103.823a6.1,6.1,0,0,0,1.487-.646,1.128,1.128,0,0,0,.324.258,8.169,8.169,0,0,0,2.458,1.294,3.524,3.524,0,0,1,2.264,1.294c.453.517,1.488-.453,1.747.065a2.878,2.878,0,0,0,1.035,1.552c.841.453,1.617.906,2.458,1.358a1.03,1.03,0,0,0,.97.13c.453-.13.518.065.712.388a6.881,6.881,0,0,0,4.075,2.458,1.1,1.1,0,0,0,.647-.194c.323-.194.388-.129.453.259.194,1.423.776,1.811,2.134,1.423.259-.065.388-.129.453.194.453,1.488.97,1.682,2.523,1.1a1.929,1.929,0,0,0,.776,1.552c.518.324,1.229-.129,1.682,0s.388,1.1.906,1.488a1.789,1.789,0,0,0,1.164,0h1.682c.065-.259.194-.518.453-.453a2.693,2.693,0,0,0,1.876-.259,16.53,16.53,0,0,1,1.811-1.035,1.891,1.891,0,0,0,1.164-2.2c1.811.97,2.652.518,2.847-1.488,1.811.906,2.522.518,2.781-1.617.518.323,1.1.712,1.488.453,1.294-.776,2.975-1.035,3.752-2.652.064-.13.129-.259.323-.194,1.359.323,1.941-.453,2.005-1.812a1.887,1.887,0,0,0,1.747.259,10.415,10.415,0,0,0,2.717-1.617,4.721,4.721,0,0,1,2.264-1.294,5.8,5.8,0,0,0,1.811-.841l1.294-.905ZM37.974,23.934c.518-.258.388-1.293.776-1.423s1.165.388,1.682.065a15.893,15.893,0,0,0,2.717-1.617,4.747,4.747,0,0,1,2.135-1.229,5.963,5.963,0,0,0,2.781-1.553,4.26,4.26,0,0,1,2.2-1.294,5.757,5.757,0,0,0,2.717-1.552,4.823,4.823,0,0,1,2.393-1.294,4.958,4.958,0,0,0,2.458-1.423,5.133,5.133,0,0,1,2.588-1.423,4.48,4.48,0,0,0,1.487-.712,6.8,6.8,0,0,0,1.812.906,4.2,4.2,0,0,1,2.264,1.294,9.314,9.314,0,0,0,2.2,1.293,1.953,1.953,0,0,0,2.458-.129c.065,1.488.647,2.394,1.617,2.07s1.229-.129,1.423.776,1.1.971,2.588.388a1.968,1.968,0,0,0,.712,1.812A12.46,12.46,0,0,0,79.7,20.377a4.956,4.956,0,0,1,2.2,1.229,5.961,5.961,0,0,0,2.781,1.552,3.8,3.8,0,0,1,1.941,1.035v.259a1.892,1.892,0,0,0,1.294,2.135c-1.747,1.164-1.747,2.134,0,3.234-1.812.97-1.553,2.458,0,3.234-.518.259-1.165.582-1.165,1.1,0,1.552-.582,3.1.388,4.657.13.2.065.259-.064.453-.776,1.165-.647,1.617.582,2.588-.517.388-1.035.776-1.035,1.423V46.51a1.348,1.348,0,0,0,.518,1.035c.323.194.388.324.064.647-.9.906-.841,1.682.259,2.458.388.259.323.388,0,.582a1.791,1.791,0,0,0-.841,1.294,1.352,1.352,0,0,0,.259.712c-.13.064-.194.064-.324.129-.776.518-1.811.776-2.393,1.488l-.194.194a6.27,6.27,0,0,0-1.811,1.035l-.259.065c-.194.064-.324.129-.388.323a1.662,1.662,0,0,0-.777,1.164,2.341,2.341,0,0,0-1.617.13c-.776.517-1.617.97-2.458,1.423a1.73,1.73,0,0,0-.388.323c-.388,0-.711.324-.906.906a5.907,5.907,0,0,0-3.169,1.423,6.143,6.143,0,0,0-1.747,1.1,5.805,5.805,0,0,1-.647.582,1.088,1.088,0,0,0-1.229.582l-.323.065a6.088,6.088,0,0,0-2.782,1.617,4.134,4.134,0,0,1-.841.647,1.059,1.059,0,0,0-.776.129.776.776,0,0,0-.323.324l-.194.064a4.158,4.158,0,0,0-1.23.518,2.825,2.825,0,0,1-.9-.841.064.064,0,0,1-.065-.065,1.025,1.025,0,0,0-.97.065,6.432,6.432,0,0,1-.906-.517,1.414,1.414,0,0,0-.517-.906,13.318,13.318,0,0,0-2.847-1.488,4.434,4.434,0,0,1-2.134-1.229,5.658,5.658,0,0,0-2.782-1.552,4.637,4.637,0,0,1-2.2-1.23,5.472,5.472,0,0,0-2.717-1.552A4.087,4.087,0,0,1,43.731,56.8a5.455,5.455,0,0,0-2.523-1.424,5.241,5.241,0,0,1-2.587-1.487,6.473,6.473,0,0,0-1.811-1.1A4.534,4.534,0,0,1,37,50.909a4.889,4.889,0,0,0,0-3.04,4.848,4.848,0,0,1,0-2.717,5.569,5.569,0,0,0,0-2.911,5.078,5.078,0,0,1,0-2.782,10.941,10.941,0,0,0,.064-2.911,1.492,1.492,0,0,0-.841-1.423c-.388-.194-.323-.323,0-.582,1.165-.841,1.165-1.811,0-2.652-.388-.259-.323-.388.065-.582a1.791,1.791,0,0,0,.841-1.294C37.2,29.239,35.9,28.721,36.1,28.4c.453-.583,1.035-1.035,1.035-1.747a14.034,14.034,0,0,0,0-2.329,2.323,2.323,0,0,1,.647-.129C37.974,24,37.974,23.934,37.974,23.934Zm-3.1,90.369H36.1c-.453,0-1.035.323-1.229,0Zm22.382-13.391a3.75,3.75,0,0,1-2.264,1.23c-.712.129-.388,1.487-.971,1.423a2.665,2.665,0,0,0-1.875.129c-.777.518-1.618.97-2.459,1.423a.935.935,0,0,0-.582.776c-.064.453-.323.389-.711.453a6.788,6.788,0,0,0-4.205,2.264.9.9,0,0,0-.129.712c0,.388-.065.453-.453.259-1.294-.518-1.941-.259-2.264,1.1-.065.259-.065.388-.453.324-1.488-.388-1.941-.065-2.264,1.617a1.858,1.858,0,0,0-1.747-.129c-.582.323-.517,1.164-.841,1.423s-.905-.13-1.487-.065a2.679,2.679,0,0,0-.971-1.1,16.369,16.369,0,0,1-1.811-1.035,1.872,1.872,0,0,0-2.458.13c-.065-2.07-.906-2.588-2.717-1.682-.194-2-.841-2.394-2.846-1.617.064-.583.064-1.294-.388-1.553-1.294-.711-2.394-2-4.14-1.876-.13,0-.259,0-.324-.129-.388-1.294-1.358-1.423-2.587-.841a1.729,1.729,0,0,0-.647-1.617,11.762,11.762,0,0,0-2.782-1.553,4.442,4.442,0,0,1-2.264-1.294,2.852,2.852,0,0,0-.453-.388,3.952,3.952,0,0,1,.065-2.587,4.889,4.889,0,0,0,0-3.04,4.848,4.848,0,0,1,0-2.717,5.8,5.8,0,0,0,0-2.976,5.078,5.078,0,0,1,0-2.782,10.48,10.48,0,0,0,.065-2.846,1.5,1.5,0,0,0-.841-1.423c-.388-.194-.324-.323,0-.582,1.164-.841,1.164-1.811,0-2.652-.388-.259-.324-.388.064-.582a1.62,1.62,0,0,0,.841-1.294c.065-.776-1.229-1.294-1.035-1.617.453-.583,1.035-1.035,1.035-1.747a13.167,13.167,0,0,0,0-2.264A2.287,2.287,0,0,1,11,70.057h.065c.517-.259.388-1.294.776-1.424s1.165.389,1.682.065a15.893,15.893,0,0,0,2.717-1.617,4.747,4.747,0,0,1,2.135-1.229A5.954,5.954,0,0,0,21.155,64.3a4.258,4.258,0,0,1,2.2-1.293,6.236,6.236,0,0,0,2.716-1.488,4.83,4.83,0,0,1,2.394-1.294A4.965,4.965,0,0,0,30.923,58.8a5.134,5.134,0,0,1,2.587-1.423,6.142,6.142,0,0,0,.971-.388,1.439,1.439,0,0,0,.323.194,8.177,8.177,0,0,0,2.458,1.293,3.244,3.244,0,0,1,2.2,1.294c.259.259.647.13,1.035,0q.387.2.776.388l.129.065a2.04,2.04,0,0,0,.841,1.1c.841.452,1.617.905,2.458,1.358a1.032,1.032,0,0,0,.971.129c.453-.129.517.065.711.389a6.89,6.89,0,0,0,4.076,2.458.482.482,0,0,0,.323-.065,6.484,6.484,0,0,0,.906.518c.258,1.035.841,1.229,2,.905l.129-.065.324.2v.064c.323,1.229.776,1.617,1.811,1.359a5.315,5.315,0,0,0,.841.452,1.335,1.335,0,0,0,.647.906c.517.324,1.229-.129,1.682,0,.064.065.129.065.194.129a2.821,2.821,0,0,1,.323.777,1.965,1.965,0,0,0,1.294,2c-1.747,1.164-1.747,2.135,0,3.234-1.811.971-1.553,2.459,0,3.235-.518.259-1.164.582-1.164,1.1,0,1.553-.583,3.1.388,4.658.129.194.064.259-.065.453-.776,1.164-.647,1.617.582,2.587-.517.388-1.035.777-1.035,1.423v3.235a1.35,1.35,0,0,0,.518,1.035c.323.194.388.323.064.647-.905.905-.841,1.682.259,2.458.388.259.324.388,0,.582a1.488,1.488,0,0,0-.841,1.294,1.36,1.36,0,0,0,.259.711c-.129.065-.194.065-.323.13a6.44,6.44,0,0,0-2.329,1.293Zm3.428-.646c-.129.194-.323.323-.453.517l.453-.711c.065,0,.065.129,0,.194Zm29.5,14.037h1.229c-.518,0-1.035.323-1.229,0Zm22.317-13.391a3.748,3.748,0,0,1-2.264,1.23c-.712.129-.388,1.487-.97,1.423a2.668,2.668,0,0,0-1.876.129c-.777.518-1.618.97-2.394,1.423a.935.935,0,0,0-.582.776c-.065.453-.323.389-.712.453a6.628,6.628,0,0,0-4.2,2.264.9.9,0,0,0-.13.712c0,.388-.064.453-.452.259-1.294-.518-1.941-.259-2.264,1.1-.065.259-.065.388-.453.324-1.488-.388-1.941-.065-2.264,1.617a1.858,1.858,0,0,0-1.747-.129c-.517.323-.517,1.164-.841,1.423s-.906-.13-1.488-.065a2.67,2.67,0,0,0-.97-1.1c-.582-.323-1.229-.647-1.811-1.035a1.872,1.872,0,0,0-2.458.13c-.065-2.07-.906-2.588-2.782-1.682-.194-2-.841-2.394-2.846-1.617.065-.583.065-1.294-.388-1.553-1.359-.711-2.394-2-4.2-1.876-.129,0-.259,0-.323-.129-.389-1.294-1.359-1.423-2.588-.841a1.727,1.727,0,0,0-.647-1.617,11.736,11.736,0,0,0-2.781-1.553,4.442,4.442,0,0,1-2.264-1.294,2.9,2.9,0,0,0-.453-.388,3.946,3.946,0,0,1,.064-2.587,4.874,4.874,0,0,0,0-3.04,4.866,4.866,0,0,1,0-2.717,5.8,5.8,0,0,0,0-2.976,5.1,5.1,0,0,1,0-2.782,13.963,13.963,0,0,0,.065-2.846,1.4,1.4,0,0,0-.841-1.423c-.388-.194-.323-.323,0-.582,1.165-.841,1.165-1.811,0-2.652-.388-.259-.323-.388,0-.582a1.487,1.487,0,0,0,.841-1.294c.065-.776-1.229-1.294-1.035-1.617.453-.583,1.035-1.035,1.035-1.747s.065-1.358.065-2.07a15.353,15.353,0,0,1,1.423-.776,2.147,2.147,0,0,0,1.035-.971.889.889,0,0,0,.711-.064,15.854,15.854,0,0,0,2.717-1.617,6.825,6.825,0,0,1,.777-.647,1.045,1.045,0,0,0,1.1-.518.393.393,0,0,1,.259-.064,5.971,5.971,0,0,0,2.782-1.553h0a6.468,6.468,0,0,0,2-1.229l.194-.065a6.219,6.219,0,0,0,2.717-1.488,3.372,3.372,0,0,1,1.229-.905,1.21,1.21,0,0,0,.517-.13l.324-.194.259-.064a4.965,4.965,0,0,0,2.458-1.423,5.139,5.139,0,0,1,2.587-1.424,4.192,4.192,0,0,0,1.423-.711,6.835,6.835,0,0,0,1.812.906,4.2,4.2,0,0,1,2.264,1.293,9.352,9.352,0,0,0,2.2,1.294A1.875,1.875,0,0,0,98.78,59.9c.065,1.487.647,2.393,1.617,2.07s1.229-.13,1.424.776,1.1.97,2.587.388a1.967,1.967,0,0,0,.712,1.811,12.418,12.418,0,0,0,2.716,1.488,4.966,4.966,0,0,1,2.2,1.229,5.963,5.963,0,0,0,2.781,1.553,3.793,3.793,0,0,1,1.941,1.035v.258a1.891,1.891,0,0,0,1.294,2.135c-1.747,1.164-1.747,2.135,0,3.234-1.812.971-1.553,2.459,0,3.235-.518.259-1.165.582-1.165,1.1,0,1.552-.582,3.105.388,4.657.13.194.065.259-.064.453-.776,1.164-.647,1.617.582,2.587-.517.388-1.035.777-1.035,1.423v3.235a1.35,1.35,0,0,0,.518,1.035c.323.194.388.323.064.647-.97.905-.841,1.682.259,2.458.388.259.323.388,0,.582a1.486,1.486,0,0,0-.841,1.294,1.349,1.349,0,0,0,.259.711c-.13.065-.194.065-.324.13-.517.517-1.552.776-2.2,1.487Zm3.428-.646c-.129.194-.323.323-.452.517l.452-.711c.065,0,.13.129,0,.194Z" fill="#195479"/><path d="M55.892,12.355c.065,0,.13-.064.065.065-.582.776-.129.776.841.129-.388.518-.647.841-.517.971.194.194.258.582.646.517s.518.065.583.453a.5.5,0,0,0,.517.453c.065,0,.13,0,.13-.065.323-.129.517-.065.646.324a.506.506,0,0,0,.583.388c.064,0,.129-.065.194-.13.323-.258.517-.129.711.194a.461.461,0,0,0,.647.194c.065,0,.065-.064.129-.064.259-.259.518-.259.712.064s.517,0,.776,0,.259-.258.259-.84c0-.389,0-.389.129,0,.389,1.164.712,1.1.647-.13,0-.388,0-.323.13,0,.194.518.388.712.517.712s-.065-1.294.065-1.1c.259.323.647.906.776.776s.518-.064.647-.388.194-.582.647-.323h0c.129-.065-.324-.906-.259-.906s.712.582.841.453c.194-.194.582-.259.582-.647s.13-.453.453-.453a.51.51,0,0,0,.518-.517v-.194c-.065-.324,0-.518.323-.583A.487.487,0,0,0,69.218,11c-.194-.324-.065-.518.259-.647a.408.408,0,0,0,.259-.582.227.227,0,0,0-.065-.13c-.259-.323-.129-.517.129-.776s.13-.517.065-.711L69.8,8.086l.065-.065c0-.258.194-.582-.065-.841s-.323-.388-.129-.711-.065-.453-.129-.712-.324-.323-1.424-.064c1.165-.647,1.488-1.1.712-.906s-.776.129-.194-.388.065-.518-1.1-.065c.518-.453.906-.841.776-.97s-.194-.582-.582-.582-.453-.13-.453-.453a.5.5,0,0,0-.452-.518h-.194c-.324.065-.518,0-.518-.388S65.725,1.164,65.6.97s-.518-.064-1.035.906c.452-1.747.064-1.876-.647-.259.323-1.811-.259-1.682-.712-.129.065-.518.065-1.165-.065-1.229A1.59,1.59,0,0,0,62.555,0c-.194,0-.453.065-.647.582-.064.13-.064.065-.129-.065-.323-.711-.453-.646-.582.583-.13-.518-.324-1.035-.453-.971l-.453.065-.453.129c-.129,0-.129.259-.129.583s0,.388-.129.064c-.518-.841-.712-.647-.518.453.065.388.065.324-.129,0-.324-.517-.518-.647-.647-.582s.259,1.294.129,1.1c-.388-.388-.776-.777-.905-.647s-.583.129-.583.517-.194.453-.517.388.582.971.259.841-.777-.388-.906-.258-.259.388-.453.582c-.064.064-.064.194.13.388s.129.194-.065.194c-.841-.065-.906.517-.647,1.035a1.155,1.155,0,0,0,.453.323c.323.194.323.194,0,.13-1.1-.194-1.229,0-.324.517.194.065.259.13,0,.13-1.1,0-1.1.194.13.711-.518,0-.971.065-1.035.194s.711.324.776.453-.776.194-.841.324,1.165.258.776.388-.711.323-.711.517a1.782,1.782,0,0,1,.065.582c0,.259.258.388,1.423.259-1.682.647-1.618,1.035.129.712-1.488.776-1.358,1.164.323.647-.452.323-.97.646-.905.776a3.1,3.1,0,0,0,.194.582C55.31,12.42,55.375,12.485,55.892,12.355Z" fill="#e22328"/><path d="M98.327,22.77a.46.46,0,0,1-.129-.712c.194-.323-.065-.452-.129-.646s-.324-.324-1.423-.065c1.164-.647,1.487-1.1.711-.906s-.776.13-.194-.388.065-.517-1.1-.065c.518-.452.906-.84.777-.97s-.194-.582-.583-.582-.452-.129-.452-.453a.51.51,0,0,0-.518-.517h-.129c-.324.064-.518,0-.518-.388s-.388-.259-.517-.453-.518,0-1.035.97c.453-1.747.064-1.876-.647-.259.323-1.811-.259-1.682-.712-.129.065-.518.065-1.164-.064-1.229a1.6,1.6,0,0,0-.583-.259c-.194,0-.452.065-.646.582-.065.13-.065.065-.13-.064-.323-.712-.453-.647-.582.582-.129-.518-.323-.971-.518-.971l-.452.065-.453.13c-.13,0-.13.258-.13.582s0,.388-.129.129c-.517-.841-.712-.647-.517.453.064.388.064.323-.13,0-.323-.518-.517-.647-.647-.582s.259,1.293.13,1.1c-.388-.388-.777-.776-.906-.646s-.582.129-.582.517-.194.453-.518.388.583.97.259.841-.776-.388-.906-.259-.258.388-.452.583c-.065.064-.065.194.129.388s.129.194-.065.194c-.841-.065-.905.517-.647,1.035a1.172,1.172,0,0,0,.453.323c.324.194.324.194,0,.13-1.1-.2-1.229,0-.323.517.194.065.259.129,0,.129-1.1,0-1.1.259.129.712-.517,0-.97.065-1.035.194s.712.323.777.453-.777.194-.841.323,1.164.324.776.388-.712.324-.712.518a1.782,1.782,0,0,1,.065.582c0,.259.259.388,1.423.259-1.682.647-1.617,1.035.129.711-1.487.777-1.358,1.165.324.647-.453.324-.97.647-.906.777a3.539,3.539,0,0,0,.194.646c.13.194.324.324.777.13.064,0,.129-.065.064.064-.582.777-.129.777.841.13-.388.517-.647.841-.517.97.194.194.258.582.647.518s.517.064.582.452a.5.5,0,0,0,.517.453c.065,0,.13,0,.13-.064.323-.13.517-.065.647.323a.5.5,0,0,0,.582.388c.064,0,.129-.065.194-.129.323-.194.517-.13.711.194a.462.462,0,0,0,.647.194c.065,0,.065-.065.13-.065.258-.259.517-.259.711.065s.518,0,.776,0,.259-.259.259-.841c0-.453,0-.388.13,0,.388,1.164.711,1.1.646-.129,0-.389,0-.324.13,0,.194.517.388.711.517.711s-.064-1.294.065-1.1c.259.324.647.906.776.777s.518-.065.647-.388.194-.583.647-.324h0c.129-.065-.323-.906-.259-.906s.712.583.841.453.582-.258.582-.647.13-.452.453-.517a.511.511,0,0,0,.518-.518v-.129c-.065-.323,0-.517.323-.582a.526.526,0,0,0,.388-.776c-.194-.389-.064-.518.259-.647a.473.473,0,0,0,.259-.647c0-.065-.065-.065-.065-.13-.259-.323-.129-.517.129-.776s.13-.517.065-.776l-.065-.065.065-.064C98.457,23.288,98.651,22.964,98.327,22.77Z" fill="#e22328"/><path d="M98.327,52.979a.459.459,0,0,1-.129-.711c.194-.324-.065-.453-.129-.712s-.324-.323-1.423-.065c1.164-.647,1.487-1.1.711-.905s-.776.129-.194-.388.065-.518-1.1-.065c.518-.453.906-.841.777-.97s-.194-.583-.583-.583-.452-.129-.452-.452a.511.511,0,0,0-.518-.518h-.129c-.324.065-.518,0-.518-.388s-.388-.259-.517-.453-.518-.065-1.035.906c.453-1.747.064-1.811-.647-.259.323-1.811-.259-1.682-.712-.129.065-.518.065-1.165-.064-1.165s-.389-.259-.583-.259-.452.065-.646.583c-.065.129-.065.064-.13-.065-.323-.712-.453-.647-.582.582-.129-.517-.323-.97-.518-.97l-.452.065-.453.129c-.13,0-.13.259-.13.582s0,.388-.129.13c-.517-.841-.712-.647-.517.452.064.388.064.324-.13,0-.323-.517-.517-.647-.647-.582s.259,1.294.13,1.1c-.388-.388-.777-.776-.906-.647s-.582.129-.582.517-.194.453-.518.453.583.971.259.841-.776-.388-.906-.259-.258.389-.452.583c-.065.064-.065.194.129.388s.129.194-.065.194c-.841-.065-.905.517-.647,1.035a1.162,1.162,0,0,0,.453.323c.324.194.324.194,0,.13-1.1-.194-1.229,0-.323.517.194.129.259.129,0,.129-1.1,0-1.1.2.129.712-.517,0-.97.065-1.035.194s.712.324.777.453-.777.194-.841.323,1.164.324.776.388-.712.324-.712.518a1.782,1.782,0,0,1,.065.582c0,.259.259.388,1.423.259-1.682.647-1.617,1.035.129.711-1.487.777-1.358,1.165.324.647-.453.324-.97.647-.906.777s.065.452.194.582a.6.6,0,0,0,.777.129c.064,0,.129-.064.064.065-.582.776-.129.776.841.129-.388.518-.647.841-.517.971.194.194.258.582.647.517s.517.129.582.453a.566.566,0,0,0,.582.453c.065,0,.129,0,.129-.065.324-.129.518-.065.647.323a.505.505,0,0,0,.582.389c.065,0,.13-.065.195-.13.323-.194.517-.129.711.194a.461.461,0,0,0,.647.194c.065,0,.065-.064.129-.064a.426.426,0,0,1,.647-.065l.13.129c.258.259.517,0,.776,0s.259-.258.259-.841c0-.388,0-.388.129,0,.388,1.165.712,1.1.647-.129,0-.388,0-.323.129,0,.194.518.388.712.518.712s-.065-1.294.064-1.1c.259.323.647.906.777.776s.517-.065.647-.388.194-.582.646-.323h0c.13-.065-.323-.906-.258-.906s.711.582.841.453.582-.259.582-.647.129-.453.453-.518a.5.5,0,0,0,.517-.452v-.194c-.065-.324,0-.518.324-.583a.526.526,0,0,0,.388-.776c-.194-.388-.065-.517.258-.647a.408.408,0,0,0,.259-.582.223.223,0,0,0-.065-.129c-.258-.324-.129-.518.13-.777s.129-.517.065-.776l-.065-.065.065-.064C98.457,53.561,98.651,53.238,98.327,52.979Z" fill="#e22328"/><path d="M98.327,115.208a.459.459,0,0,1-.129-.711c.194-.324-.065-.453-.129-.712s-.324-.323-1.423-.064c1.164-.647,1.487-1.1.711-.906s-.776.129-.194-.388.065-.518-1.1-.065c.518-.453.906-.841.777-.97s-.194-.582-.583-.582-.452-.13-.452-.453a.511.511,0,0,0-.518-.518h-.129c-.324.065-.518,0-.518-.388s-.388-.258-.517-.453-.518-.064-1.035.906c.453-1.746.064-1.811-.647-.259.323-1.811-.259-1.682-.712-.129.065-.518.065-1.164-.064-1.164s-.389-.259-.583-.259-.452.064-.646.582c-.065.129-.065.065-.13-.065-.323-.711-.453-.647-.582.583-.129-.518-.323-.971-.518-.971l-.452.065-.453.129c-.13,0-.13.259-.13.582s0,.389-.129.13c-.517-.841-.712-.647-.517.453.064.388.064.323-.13,0-.323-.518-.517-.647-.647-.583s.259,1.294.13,1.1c-.388-.388-.777-.776-.906-.647s-.582.13-.582.518-.194.453-.518.388.583.97.259.841-.776-.388-.906-.259-.258.388-.452.582c-.065.065-.065.194.129.388s.129.194-.065.194c-.841-.064-.905.518-.647,1.035a1.164,1.164,0,0,0,.453.324c.324.194.324.194,0,.129-1.1-.194-1.229,0-.323.518.194.129.259.129,0,.129-1.1,0-1.1.194.129.712-.517,0-.97.064-1.035.194s.712.323.777.453-.777.194-.841.323,1.164.323.776.388-.712.324-.712.518a1.782,1.782,0,0,1,.065.582c0,.259.259.388,1.423.259-1.682.646-1.617,1.035.129.711-1.487.776-1.358,1.164.324.647-.453.323-.97.647-.906.776s.065.453.194.582a.6.6,0,0,0,.777.13c.064,0,.129-.065.064.064-.582.777-.129.777.841.13-.388.517-.647.841-.517.97.194.194.258.582.647.518s.517.064.582.452a.566.566,0,0,0,.582.453c.065,0,.129,0,.129-.064.324-.13.518-.065.647.323a.5.5,0,0,0,.582.388c.065,0,.13-.064.195-.129.323-.194.517-.13.711.194a.462.462,0,0,0,.647.194c.065,0,.065-.065.129-.065a.425.425,0,0,1,.647-.064l.13.129c.258.259.517,0,.776,0s.259-.259.259-.841c0-.388,0-.388.129,0,.388,1.164.712,1.1.647-.129,0-.388,0-.324.129,0,.194.517.388.711.518.711s-.065-1.294.064-1.1c.259.324.647.906.777.777s.517-.065.647-.388.194-.583.646-.324h0c.13-.064-.323-.905-.258-.905s.711.582.841.452.582-.258.582-.646.129-.453.453-.518a.5.5,0,0,0,.517-.453v-.194c-.065-.323,0-.517.324-.582a.527.527,0,0,0,.388-.776c-.194-.388-.065-.518.258-.647a.408.408,0,0,0,.259-.582.227.227,0,0,0-.065-.13c-.258-.323-.129-.517.13-.776s.129-.518.065-.776l-.065-.065.065-.065C98.457,115.726,98.651,115.467,98.327,115.208Z" fill="#e22328"/><path d="M71.223,69.086c-.323-.194-.323-.388-.129-.711s-.065-.453-.129-.647-.324-.324-1.424-.065c1.165-.647,1.488-1.1.712-.906s-.776.13-.194-.388.065-.517-1.1-.064c.518-.453.906-.841.777-.971s-.2-.582-.583-.582-.452-.129-.452-.453a.511.511,0,0,0-.518-.517h-.129c-.324.065-.518,0-.518-.388s-.388-.259-.517-.453-.518,0-1.035.97c.452-1.746.064-1.876-.647-.259.323-1.811-.259-1.681-.712-.129.065-.517.065-1.164-.064-1.164s-.389-.259-.583-.259-.452.065-.646.582c-.065.13-.065.065-.13-.064-.323-.712-.453-.647-.582.582-.129-.518-.324-.971-.453-.971l-.453.065-.388.129c-.129,0-.129.259-.129.583s0,.388-.13.129c-.517-.841-.711-.647-.517.453.065.388.065.323-.129,0-.324-.518-.518-.647-.647-.582s.258,1.293.129,1.1c-.388-.388-.776-.776-.906-.647s-.582.13-.582.518-.194.453-.517.388.582.97.258.841-.776-.388-.905-.259a4.517,4.517,0,0,0-.453.582c-.065.065-.065.194.129.389s.13.194-.064.194c-.841-.065-.906.517-.647,1.035a1.165,1.165,0,0,0,.453.323c.323.194.323.194,0,.129-1.1-.194-1.229,0-.324.518.194.129.259.129,0,.129-1.1,0-1.1.194.13.712-.518,0-.971.065-1.035.194s.711.323.776.453-.776.194-.841.323,1.164.324.776.388-.711.324-.711.518a1.808,1.808,0,0,1,.064.582c0,.259.259.388,1.423.259-1.681.647-1.617,1.035.13.711-1.488.777-1.359,1.165.323.647-.453.324-.97.647-.905.776a3.373,3.373,0,0,0,.194.647c.129.194.323.324.776.13.065,0,.129-.065.065.064-.583.777-.13.777.841.13-.389.517-.647.841-.518.97s.259.582.647.518.517.064.517.452a.567.567,0,0,0,.583.453c.064,0,.129,0,.129-.065.323-.129.518-.064.647.324a.492.492,0,0,0,.517.388c.065,0,.13-.065.194-.129.324-.194.518-.13.712.194a.463.463,0,0,0,.647.194c.065,0,.065-.065.129-.065.259-.259.518-.259.777.065s.517,0,.776,0c.129,0,.259-.259.259-.841,0-.388,0-.388.129,0,.388,1.164.711,1.1.647-.13,0-.388,0-.323.129,0,.194.518.388.712.582.712s-.064-1.294.065-1.1c.259.324.647.906.776.777s.583-.065.647-.389.194-.582.647-.323h0c.129-.065-.323-.906-.259-.906s.712.583.841.453.582-.259.582-.647.13-.453.453-.517a.511.511,0,0,0,.518-.518V74.52c-.065-.324,0-.518.323-.582a.5.5,0,0,0,.324-.777c-.194-.388-.065-.517.258-.646a.394.394,0,0,0,.259-.583.227.227,0,0,0-.065-.129c-.258-.323-.129-.517.13-.776s.129-.518.065-.777l-.065-.064a.227.227,0,0,0,.065-.13C71.288,69.6,71.482,69.28,71.223,69.086Z" fill="#e22328"/><path d="M71.223,99.748c-.323-.194-.323-.388-.129-.711s-.065-.453-.129-.647-.324-.324-1.424-.065c1.165-.647,1.488-1.1.712-.906s-.776.13-.194-.388.065-.517-1.1-.064c.518-.453.906-.841.777-.971s-.2-.582-.583-.582-.452-.129-.452-.453a.51.51,0,0,0-.518-.517h-.129c-.324.064-.518,0-.518-.388s-.388-.259-.517-.453-.518-.065-1.035.905c.452-1.746.064-1.811-.647-.258.323-1.812-.259-1.682-.712-.13.065-.517.065-1.164-.064-1.164s-.389-.259-.583-.259-.452.065-.646.582c-.065.13-.065.065-.13-.064-.323-.712-.453-.647-.582.582-.129-.518-.324-1.035-.453-.97l-.453.064-.388.13c-.129,0-.129.258-.129.582s0,.388-.13.129c-.517-.841-.711-.647-.517.453.065.388.065.323-.129,0-.324-.517-.518-.647-.647-.582s.258,1.294.129,1.1c-.388-.389-.776-.777-.906-.647s-.582.129-.582.517-.194.453-.517.453.582.97.258.841-.776-.388-.905-.259a4.449,4.449,0,0,0-.453.582c-.065.065-.065.194.129.388s.13.195-.064.195c-.841-.065-.906.517-.647,1.034a1.157,1.157,0,0,0,.453.324c.323.194.323.194,0,.129-1.1-.194-1.229,0-.324.518.194.129.259.129,0,.129-1.1,0-1.1.194.13.712-.518,0-.971.064-1.035.194s.711.323.776.453-.776.194-.841.323,1.164.259.776.388-.711.324-.711.518a1.808,1.808,0,0,1,.064.582c0,.259.259.388,1.423.259-1.681.646-1.617,1.035.13.711-1.488.776-1.359,1.165.323.647-.453.323-.97.647-.905.776s.064.453.194.582a.679.679,0,0,0,.776.195c.065,0,.129-.065.065.064-.583.776-.13.776.841.13-.389.517-.647.841-.518.97s.259.582.647.517.517.065.517.453a.567.567,0,0,0,.583.453c.064,0,.064,0,.129-.065.323-.129.518-.064.647.324a.492.492,0,0,0,.517.388c.065,0,.13-.065.194-.129.324-.259.518-.13.712.194a.463.463,0,0,0,.647.194c.065,0,.065-.065.129-.065a.433.433,0,0,1,.647-.065l.13.13c.258.258.517,0,.776,0,.129,0,.259-.259.259-.841,0-.453,0-.388.129,0,.388,1.164.711,1.1.647-.13,0-.388,0-.323.129,0,.194.518.388.712.582.712s-.064-1.294.065-1.1c.259.324.647.906.776.776s.583-.064.647-.388.194-.582.647-.323h0c.129-.065-.323-.906-.259-.906s.712.583.841.453.582-.259.582-.647.13-.453.453-.453a.51.51,0,0,0,.518-.517v-.194c-.065-.324,0-.518.323-.582a.5.5,0,0,0,.324-.777c-.194-.388-.065-.517.258-.646a.394.394,0,0,0,.259-.583.227.227,0,0,0-.065-.129c-.258-.323-.129-.518.13-.776s.129-.518.065-.712l-.065-.065.065-.064C71.288,100.266,71.482,100.007,71.223,99.748Z" fill="#e22328"/><path d="M42.826,22.77a.46.46,0,0,1-.13-.712c.194-.323-.064-.452-.129-.646s-.324-.324-1.423-.065c1.164-.647,1.487-1.1.711-.906s-.776.13-.194-.388.065-.517-1.1-.065c.518-.452.906-.84.777-.97s-.194-.582-.582-.582-.453-.129-.453-.453a.51.51,0,0,0-.518-.517h-.129c-.324.064-.518,0-.518-.388s-.388-.259-.517-.453-.518,0-1.035.97c.453-1.747.065-1.876-.647-.259.323-1.811-.259-1.682-.712-.129.065-.518.065-1.164-.064-1.229a1.6,1.6,0,0,0-.582-.259c-.2,0-.453.065-.647.582-.065.13-.065.065-.13-.064-.323-.712-.453-.647-.582.582-.129-.518-.323-.971-.453-.971l-.453.065-.452.13c-.13,0-.13.258-.13.582s0,.388-.129.129c-.518-.841-.712-.647-.518.453.065.388.065.323-.129,0-.323-.518-.517-.647-.647-.582s.259,1.293.13,1.1c-.389-.388-.777-.776-.906-.646s-.582.129-.582.517-.194.453-.518.388.582.97.259.841-.776-.388-.906-.259-.258.388-.453.583c-.064.064-.064.194.13.388s.129.194-.065.194c-.841-.065-.9.517-.647,1.035a1.172,1.172,0,0,0,.453.323c.324.194.324.194,0,.13-1.1-.2-1.229,0-.323.517.194.065.258.129,0,.129-1.1,0-1.1.259.129.712-.517,0-.97.065-1.035.194s.712.323.776.453-.776.194-.841.323,1.165.324.777.388-.712.324-.712.518a1.782,1.782,0,0,1,.065.582c0,.259.259.388,1.423.259-1.682.647-1.617,1.035.129.711-1.487.777-1.358,1.165.324.647-.453.324-.971.647-.906.777a3.539,3.539,0,0,0,.194.646c.13.194.324.324.776.13.065,0,.13-.065.065.064-.582.777-.129.777.841.13-.388.517-.647.841-.517.97.194.194.258.582.646.518s.518.064.583.452a.5.5,0,0,0,.517.453c.065,0,.13,0,.13-.064.323-.13.517-.065.646.323a.5.5,0,0,0,.583.388c.064,0,.129-.065.194-.129.323-.194.517-.13.711.194a.462.462,0,0,0,.647.194c.065,0,.065-.065.129-.065.259-.259.518-.259.712.065s.517,0,.776,0,.259-.259.259-.841c0-.453,0-.388.129,0,.389,1.164.712,1.1.647-.129,0-.389,0-.324.13,0,.194.517.388.711.517.711s-.065-1.294.065-1.1c.259.324.647.906.776.777s.518-.065.647-.388.194-.583.647-.324h0c.129-.065-.324-.906-.259-.906s.712.583.841.453.582-.258.582-.647.13-.452.453-.517a.51.51,0,0,0,.517-.518v-.129c-.064-.323,0-.517.324-.582a.527.527,0,0,0,.388-.776c-.194-.389-.065-.518.259-.647a.473.473,0,0,0,.259-.647c0-.065-.065-.065-.065-.13-.259-.323-.129-.517.129-.776s.13-.517.065-.776l-.065-.065.065-.064C42.955,23.288,43.149,22.964,42.826,22.77Z" fill="#e22328"/><path d="M42.826,52.979a.459.459,0,0,1-.13-.711c.194-.324-.064-.453-.129-.712s-.324-.323-1.423-.065c1.164-.647,1.487-1.1.711-.905s-.776.129-.194-.388.065-.518-1.1-.065c.518-.453.906-.841.777-.97s-.194-.583-.582-.583-.453-.129-.453-.452a.511.511,0,0,0-.518-.518h-.129c-.324.065-.518,0-.518-.388s-.388-.259-.517-.453-.518-.065-1.035.906c.453-1.747.065-1.811-.647-.259.323-1.811-.259-1.682-.712-.129.065-.518.065-1.165-.064-1.165s-.388-.259-.582-.259-.453.065-.647.583c-.065.129-.065.064-.13-.065-.323-.712-.453-.647-.582.582-.129-.517-.323-.97-.453-.97l-.453.065-.452.129c-.13,0-.13.259-.13.582s0,.388-.129.13c-.518-.841-.712-.647-.518.452.065.388.065.324-.129,0-.323-.517-.517-.647-.647-.582s.259,1.294.13,1.1c-.389-.388-.777-.776-.906-.647s-.582.129-.582.517-.194.453-.518.453.582.971.259.841-.776-.388-.906-.259-.258.389-.453.583c-.064.064-.064.194.13.388s.129.194-.065.194c-.841-.065-.9.517-.647,1.035a1.162,1.162,0,0,0,.453.323c.324.194.324.194,0,.13-1.1-.194-1.229,0-.323.517.194.129.258.129,0,.129-1.1,0-1.1.2.129.712-.517,0-.97.065-1.035.194s.712.324.776.453-.776.194-.841.323,1.165.324.777.388-.712.324-.712.518a1.782,1.782,0,0,1,.065.582c0,.259.259.388,1.423.259-1.682.647-1.617,1.035.129.711-1.487.777-1.358,1.165.324.647-.453.324-.971.647-.906.777s.065.452.194.582a.6.6,0,0,0,.776.129c.065,0,.13-.064.065.065-.582.776-.129.776.841.129-.388.518-.647.841-.517.971.194.194.258.582.646.517s.518.129.583.453a.565.565,0,0,0,.582.453c.065,0,.129,0,.129-.065.324-.129.518-.065.647.323a.505.505,0,0,0,.582.389c.065,0,.13-.065.194-.13.324-.194.518-.129.712.194a.461.461,0,0,0,.647.194c.064,0,.064-.064.129-.064a.426.426,0,0,1,.647-.065l.129.129c.259.259.518,0,.777,0s.258-.258.258-.841c0-.388,0-.388.13,0,.388,1.165.711,1.1.647-.129,0-.388,0-.323.129,0,.194.518.388.712.518.712s-.065-1.294.064-1.1c.259.323.647.906.776.776s.518-.065.647-.388.194-.582.647-.323h0c.13-.065-.323-.906-.259-.906s.712.582.841.453.583-.259.583-.647.129-.453.452-.518a.5.5,0,0,0,.518-.452v-.194c-.065-.324,0-.518.323-.583a.526.526,0,0,0,.388-.776c-.194-.388-.064-.517.259-.647a.408.408,0,0,0,.259-.582.223.223,0,0,0-.065-.129c-.258-.324-.129-.518.13-.777s.129-.517.064-.776l-.064-.065.064-.064C42.955,53.561,43.149,53.238,42.826,52.979Z" fill="#e22328"/><path d="M42.826,115.208a.459.459,0,0,1-.13-.711c.194-.324-.064-.453-.129-.712s-.324-.323-1.423-.064c1.164-.647,1.487-1.1.711-.906s-.776.129-.194-.388.065-.518-1.1-.065c.518-.453.906-.841.777-.97s-.194-.582-.582-.582-.453-.13-.453-.453a.511.511,0,0,0-.518-.518h-.129c-.324.065-.518,0-.518-.388s-.388-.258-.517-.453-.518-.064-1.035.906c.453-1.746.065-1.811-.647-.259.323-1.811-.259-1.682-.712-.129.065-.518.065-1.164-.064-1.164s-.388-.259-.582-.259-.453.064-.647.582c-.065.129-.065.065-.13-.065-.323-.711-.453-.647-.582.583-.129-.518-.323-.971-.453-.971l-.453.065-.452.129c-.13,0-.13.259-.13.582s0,.389-.129.13c-.518-.841-.712-.647-.518.453.065.388.065.323-.129,0-.323-.518-.517-.647-.647-.583s.259,1.294.13,1.1c-.389-.388-.777-.776-.906-.647s-.582.13-.582.518-.194.453-.518.388.582.97.259.841-.776-.388-.906-.259-.258.388-.453.582c-.064.065-.064.194.13.388s.129.194-.065.194c-.841-.064-.9.518-.647,1.035a1.164,1.164,0,0,0,.453.324c.324.194.324.194,0,.129-1.1-.194-1.229,0-.323.518.194.129.258.129,0,.129-1.1,0-1.1.194.129.712-.517,0-.97.064-1.035.194s.712.323.776.453-.776.194-.841.323,1.165.323.777.388-.712.324-.712.518a1.782,1.782,0,0,1,.065.582c0,.259.259.388,1.423.259-1.682.646-1.617,1.035.129.711-1.487.776-1.358,1.164.324.647-.453.323-.971.647-.906.776s.065.453.194.582a.6.6,0,0,0,.776.13c.065,0,.13-.065.065.064-.582.777-.129.777.841.13-.388.517-.647.841-.517.97.194.194.258.582.646.518s.518.064.583.452a.565.565,0,0,0,.582.453c.065,0,.129,0,.129-.064.324-.13.518-.065.647.323a.5.5,0,0,0,.582.388c.065,0,.13-.064.194-.129.324-.194.518-.13.712.194a.462.462,0,0,0,.647.194c.064,0,.064-.065.129-.065a.425.425,0,0,1,.647-.064l.129.129c.259.259.518,0,.777,0s.258-.259.258-.841c0-.388,0-.388.13,0,.388,1.164.711,1.1.647-.129,0-.388,0-.324.129,0,.194.517.388.711.518.711s-.065-1.294.064-1.1c.259.324.647.906.776.777s.518-.065.647-.388.194-.583.647-.324h0c.13-.064-.323-.905-.259-.905s.712.582.841.452.583-.258.583-.646.129-.453.452-.518a.5.5,0,0,0,.518-.453v-.194c-.065-.323,0-.517.323-.582a.526.526,0,0,0,.388-.776c-.194-.388-.064-.518.259-.647a.408.408,0,0,0,.259-.582.227.227,0,0,0-.065-.13c-.258-.323-.129-.517.13-.776s.129-.518.064-.776l-.064-.065.064-.065C42.955,115.726,43.149,115.467,42.826,115.208Z" fill="#e22328"/><path d="M15.916,98.648a.459.459,0,0,1-.13-.711c.194-.324-.064-.453-.129-.647s-.324-.323-1.423-.065c1.164-.647,1.488-1.1.711-.905s-.776.129-.194-.388.065-.518-1.1-.065c.517-.453.905-.841.776-.97s-.194-.583-.582-.583-.453-.129-.453-.452a.511.511,0,0,0-.518-.518h-.129c-.324.065-.518,0-.518-.388s-.388-.259-.517-.453-.518-.065-1.035.906c.453-1.747.065-1.811-.647-.259.323-1.811-.259-1.682-.712-.129.065-.518.065-1.165-.064-1.165s-.388-.259-.582-.259-.453.065-.647.583c-.065.129-.065.064-.13-.065-.323-.712-.452-.647-.582.582-.129-.517-.323-.97-.453-.97l-.452.065-.453.129c-.13,0-.13.259-.13.582s0,.388-.129.13c-.518-.841-.712-.647-.518.452.065.388.065.324-.129,0-.323-.517-.517-.647-.647-.582s.259,1.294.13,1.1c-.389-.388-.777-.776-.906-.647s-.582.129-.582.517-.194.453-.518.389.582.97.259.841-.776-.389-.906-.259-.258.388-.452.582c-.065.065-.065.194.129.388s.129.194-.065.194c-.841-.065-.9.518-.647,1.035a1.174,1.174,0,0,0,.453.324c.324.194.324.194,0,.129-1.1-.194-1.229,0-.323.517.194.13.259.13,0,.13-1.1,0-1.1.194.129.711-.517,0-.97.065-1.035.194s.712.324.776.453S.067,99.3,0,99.425s1.165.258.777.388-.712.323-.712.517a1.782,1.782,0,0,1,.065.582c0,.259.259.389,1.423.259-1.682.647-1.617,1.035.129.712-1.487.776-1.358,1.164.324.647-.453.323-.971.647-.906.776a3.547,3.547,0,0,0,.194.647c.13.194.324.323.776.129.065,0,.13-.065.065.065-.582.776-.129.776.841.129-.388.518-.647.841-.517.971.194.194.258.582.646.517s.518.065.583.453a.5.5,0,0,0,.517.453c.065,0,.13,0,.13-.065.323-.129.517-.065.646.323a.506.506,0,0,0,.583.389c.064,0,.129-.065.194-.13.323-.194.517-.129.711.194a.461.461,0,0,0,.647.194c.065,0,.065-.064.129-.064a.425.425,0,0,1,.712.064c.194.259.518,0,.776,0s.259-.259.259-.841c0-.453,0-.388.129,0,.389,1.165.712,1.1.647-.129,0-.388,0-.324.13,0,.194.517.388.711.517.711s-.064-1.293.065-1.1c.259.323.647.905.776.776s.518-.065.647-.388.194-.582.647-.324h0c.129-.064-.324-.905-.259-.905s.712.582.841.453.582-.259.582-.647.13-.453.453-.453a.511.511,0,0,0,.518-.518v-.194c-.065-.323,0-.517.323-.582a.526.526,0,0,0,.388-.776c-.194-.388-.065-.518.259-.647a.408.408,0,0,0,.259-.582.223.223,0,0,0-.065-.129c-.259-.324-.129-.518.129-.777s.13-.517.065-.776l-.065-.065.065-.064C16.045,99.231,16.239,98.907,15.916,98.648Z" fill="#e22328"/><path d="M15.916,69.086a.459.459,0,0,1-.13-.711c.194-.324-.064-.453-.129-.647s-.324-.324-1.423-.065c1.164-.647,1.488-1.1.711-.906s-.776.13-.194-.388.065-.517-1.1-.064c.517-.453.905-.841.776-.971s-.194-.582-.582-.582-.453-.129-.453-.453a.51.51,0,0,0-.518-.517h-.129c-.324.065-.518,0-.518-.388s-.388-.259-.517-.453-.518,0-1.035.97c.453-1.746.065-1.876-.647-.259.323-1.811-.259-1.681-.712-.129.065-.517.065-1.164-.064-1.164s-.388-.259-.582-.259-.453.065-.647.582c-.065.13-.065.065-.13-.064-.323-.712-.452-.647-.582.582-.129-.518-.323-.971-.453-.971l-.452.065-.453.129c-.13,0-.13.259-.13.583s0,.388-.129.129c-.518-.841-.712-.647-.518.453.065.388.065.323-.129,0-.323-.518-.517-.647-.647-.582s.259,1.293.13,1.1c-.389-.388-.777-.776-.906-.647s-.582.13-.582.518-.194.453-.518.388.582.97.259.841-.776-.388-.906-.259-.258.388-.452.582c-.065.065-.065.194.129.389s.129.194-.065.194c-.841-.065-.9.517-.647,1.035a1.172,1.172,0,0,0,.453.323c.324.194.324.194,0,.129-1.1-.194-1.229,0-.323.518.194.129.259.129,0,.129-1.1,0-1.1.194.129.712-.517,0-.97.065-1.035.194s.712.323.776.453S.067,69.8,0,69.927s1.165.324.777.388-.712.324-.712.518a1.782,1.782,0,0,1,.065.582c0,.259.259.388,1.423.259-1.682.647-1.617,1.035.129.711-1.487.777-1.358,1.165.324.647-.453.324-.971.647-.906.776a3.524,3.524,0,0,0,.194.647c.13.194.324.324.776.13.065,0,.13-.065.065.064-.582.777-.129.777.841.13-.388.517-.647.841-.517.97.194.194.258.582.646.518s.518.064.583.452a.5.5,0,0,0,.517.453c.065,0,.13,0,.13-.065.323-.129.517-.064.646.324a.5.5,0,0,0,.583.388c.064,0,.129-.065.194-.129.323-.194.517-.13.711.194a.463.463,0,0,0,.647.194c.065,0,.065-.065.129-.065.259-.259.518-.259.712.065s.518,0,.776,0,.259-.259.259-.841c0-.388,0-.388.129,0,.389,1.164.712,1.1.647-.13,0-.388,0-.323.13,0,.194.518.388.712.517.712s-.064-1.294.065-1.1c.259.324.647.906.776.777s.518-.065.647-.389.194-.582.647-.323h0c.129-.065-.324-.906-.259-.906s.712.583.841.453.582-.259.582-.647.13-.453.453-.517a.5.5,0,0,0,.518-.453V74.52c-.065-.324,0-.518.323-.582a.527.527,0,0,0,.388-.777c-.194-.388-.065-.517.259-.646a.409.409,0,0,0,.259-.583.227.227,0,0,0-.065-.129c-.259-.323-.129-.517.129-.776s.13-.518.065-.777l-.065-.064a.227.227,0,0,0,.065-.13C16.045,69.6,16.239,69.28,15.916,69.086Z" fill="#e22328"/><path d="M125.108,98.648c-.323-.194-.323-.388-.129-.711s-.065-.453-.13-.647-.323-.323-1.423-.065c1.164-.647,1.488-1.1.712-.905s-.777.129-.194-.388.064-.518-1.1-.065c.517-.453.906-.841.776-.97s-.194-.583-.582-.583-.453-.129-.453-.452a.51.51,0,0,0-.517-.518h-.13c-.323.065-.517,0-.517-.388s-.388-.259-.518-.453-.517-.065-1.035.906c.453-1.747.065-1.811-.647-.259.324-1.811-.258-1.682-.711-.129.065-.518.065-1.165-.065-1.165s-.388-.259-.582-.259-.453.065-.647.583c-.065.129-.065.064-.129-.065-.324-.712-.453-.647-.582.582-.13-.517-.324-.97-.453-.97l-.453.065-.388.129c-.13,0-.13.259-.13.582s0,.388-.129.13c-.517-.841-.712-.647-.517.452.064.388.064.324-.13,0-.323-.517-.517-.647-.647-.582s.259,1.294.13,1.1c-.388-.388-.777-.776-.906-.647s-.582.129-.582.517-.194.453-.518.389.583.97.259.841-.776-.389-.906-.259a4.535,4.535,0,0,0-.452.582c-.065.065-.065.194.129.388s.129.194-.065.194c-.841-.065-.905.518-.647,1.035a1.174,1.174,0,0,0,.453.324c.324.194.324.194,0,.129-1.1-.194-1.229,0-.323.517.194.13.259.13,0,.13-1.1,0-1.1.194.129.711-.517,0-.97.065-1.035.194s.712.324.777.453-.777.194-.841.324,1.164.258.776.388-.712.323-.712.517a1.782,1.782,0,0,1,.065.582c0,.259.259.389,1.423.259-1.682.647-1.617,1.035.129.712-1.487.776-1.358,1.164.324.647-.453.323-.97.647-.906.776a3.547,3.547,0,0,0,.194.647c.13.194.324.323.777.129.064,0,.129-.065.064.065-.582.776-.129.776.841.129-.388.518-.647.841-.517.971s.258.582.647.517.517.065.517.453a.567.567,0,0,0,.582.453c.065,0,.065,0,.13-.065.323-.129.517-.065.647.323a.491.491,0,0,0,.517.389c.065,0,.129-.065.194-.13.324-.194.518-.129.712.194a.461.461,0,0,0,.647.194c.064,0,.064-.064.129-.064.259-.259.517-.194.776.064s.518,0,.776,0c.13,0,.259-.259.259-.841,0-.453,0-.388.13,0,.388,1.165.711,1.1.646-.129,0-.388,0-.324.13,0,.194.517.388.711.582.711s-.065-1.293.065-1.1c.258.323.647.905.776.776s.582-.065.647-.388.194-.582.647-.324h0c.129-.064-.324-.905-.259-.905s.711.582.841.453.582-.259.582-.647.129-.453.453-.453a.51.51,0,0,0,.517-.518v-.194c-.064-.323,0-.517.324-.582a.558.558,0,0,0,.388-.776c-.129-.388-.065-.518.259-.647a.393.393,0,0,0,.258-.582.224.224,0,0,0-.064-.129c-.259-.324-.13-.518.129-.777s.13-.517.065-.776l-.065-.065.065-.064C125.173,99.231,125.367,98.907,125.108,98.648Z" fill="#e22328"/><path d="M109.906,70.251c-.452.129-.711.323-.711.517a1.782,1.782,0,0,1,.065.582c0,.259.258.388,1.423.259-1.682.647-1.617,1.035.129.712-1.488.776-1.358,1.164.324.646-.453.324-.971.647-.906.777a3.547,3.547,0,0,0,.194.647c.129.194.323.323.776.129.065,0,.13-.065.065.065-.582.776-.129.776.841.129-.388.518-.647.841-.518.97s.259.583.647.518.518.065.518.453a.566.566,0,0,0,.582.453c.065,0,.129,0,.129-.065.324-.13.518-.065.647.323a.492.492,0,0,0,.518.388c.064,0,.129-.064.194-.129.323-.194.517-.129.711.194a.462.462,0,0,0,.647.194c.065,0,.065-.065.13-.065.258-.258.517-.258.776.065s.517,0,.776,0c.129,0,.259-.259.259-.841,0-.388,0-.388.129,0,.388,1.165.712,1.1.647-.129,0-.388,0-.324.129,0,.194.517.389.711.583.711s-.065-1.293.064-1.1c.259.323.647.905.777.776s.582-.065.646-.388.194-.582.647-.324h0c.13-.064-.323-.905-.258-.905s.711.582.84.453.583-.259.583-.647.129-.453.452-.518a.5.5,0,0,0,.518-.453v-.194c-.065-.323,0-.517.323-.582a.558.558,0,0,0,.389-.776c-.13-.388-.065-.518.258-.647a.393.393,0,0,0,.259-.582.227.227,0,0,0-.065-.13c-.258-.323-.129-.517.13-.776s.129-.517.064-.776l-.064-.065a.224.224,0,0,0,.064-.129c0-.259.2-.582-.064-.841s-.324-.388-.13-.712-.064-.452-.129-.647-.323-.323-1.423-.064c1.164-.647,1.488-1.1.711-.906s-.776.13-.194-.388.065-.517-1.1-.065c.517-.452.9-.841.776-.97s-.194-.582-.582-.582-.453-.13-.453-.453a.51.51,0,0,0-.518-.517H122c-.323.064-.517,0-.517-.389s-.389-.258-.518-.452-.517,0-1.035.97c.453-1.747.065-1.876-.647-.259.324-1.811-.259-1.682-.711-.129.064-.518.064-1.165-.065-1.165s-.388-.258-.582-.258-.453.064-.647.582c-.065.129-.065.065-.129-.065-.324-.711-.453-.647-.583.582-.129-.517-.323-.97-.453-.97l-.452.065-.388.129c-.13,0-.13.259-.13.582s0,.388-.129.13c-.518-.841-.712-.647-.518.453.065.388.065.323-.129,0-.324-.518-.518-.647-.647-.583s.259,1.294.129,1.1c-.388-.388-.776-.776-.905-.647s-.582.13-.582.518-.194.452-.518.388.582.97.259.841-.776-.388-.906-.259a4.627,4.627,0,0,0-.453.582c-.064.065-.064.194.13.388s.129.194-.065.194c-.841-.064-.906.518-.647,1.035a1.164,1.164,0,0,0,.453.324c.323.194.323.194,0,.129-1.1-.194-1.229,0-.323.518.194.129.258.129,0,.129-1.1,0-1.1.194.129.712-.517,0-.97.064-1.035.194s.712.323.776.452-.776.194-.841.324S110.3,70.121,109.906,70.251Z" fill="#e22328"/></g></g></svg>