<?xml version="1.0" encoding="UTF-8"?><svg version="1.1" xmlns="http://www.w3.org/2000/svg" xmlns:xlink="http://www.w3.org/1999/xlink" viewBox="0 0 1600 1200" width="1600" height="1200" x="0px" y="0px">
    
    
    <!-- ITEM 0 -->
    <g>
        <defs>
            <clipPath id="clip-path-id-viewbox-item-0">
                <rect x="0.0" y="0.0" width="1078.7" height="809.0"/>
            </clipPath>
        </defs>
        <g transform="translate(983.0 385.0) rotate(0.0 396.0 297.0) scale(0.7342171131918049 0.7342398022249691)">
            <g clip-path="url(#clip-path-id-viewbox-item-0)" transform="translate(-0.0 -0.0)">
                

<path d="M638.2,311.3H446.9c-4.6,0-8.8-2.9-10.3-7.3c-4.2-12.2-4.2-24.5,0-36.7c1.5-4.4,5.7-7.3,10.3-7.3h191.3  c3.8,0,6.4,3.7,5.1,7.3c-4.3,12.3-4.3,24.5,0,36.8C644.6,307.6,642,311.3,638.2,311.3z" style="fill:#CF4327;"/>
<path d="M616.8,303.4H455.2c-9.8,0-15.6-7.9-13.1-17.7c2.6-9.8,12.6-17.7,22.4-17.7h161.6c9.8,0,15.6,7.9,13.1,17.7  C636.6,295.4,626.6,303.4,616.8,303.4z" style="fill:#EAE2C2;"/>
<path d="M438.9,455.2h191.3c4.6,0,8.8-2.9,10.3-7.3c4.2-12.2,4.2-24.5,0-36.7c-1.5-4.4-5.7-7.3-10.3-7.3H438.9  c-3.8,0-6.4,3.7-5.1,7.3c4.3,12.3,4.3,24.5,0,36.8C432.5,451.5,435.1,455.2,438.9,455.2z" style="fill:#E5A024;"/>
<path d="M616.6,448H455.1c-9.8,0-16.5-8.6-15-19.2c1.5-10.6,10.6-19.2,20.4-19.2H622c9.8,0,16.5,8.6,15,19.2  C635.6,439.4,626.4,448,616.6,448z" style="fill:#EAE2C2;"/>
<path d="M417.4,493.1h191.3c4.6,0,8.8-2.2,10.3-5.4c4.2-9,4.2-18.1,0-27.1c-1.5-3.2-5.7-5.4-10.3-5.4H417.4  c-3.8,0-6.4,2.7-5.1,5.4c4.3,9.1,4.3,18.1,0,27.2C411,490.4,413.6,493.1,417.4,493.1z" style="fill:#CF4327;"/>
<path d="M591.5,487.8H429.9c-6.7,0-12-6.4-12-14.3c0-7.9,5.4-14.3,12-14.3h161.6c6.7,0,12,6.4,12,14.3  C603.5,481.4,598.1,487.8,591.5,487.8z" style="fill:#EAE2C2;"/>
<path d="M623,403.9H443.7c-11.7,0-21.1-9.5-21.1-21.1v-9c0-11.7,9.5-21.1,21.1-21.1H623c9.5,0,17.2,7.7,17.2,17.2v17  C640.1,396.2,632.4,403.9,623,403.9z" style="fill:#3B301B;"/>
<path d="M615.4,397.9h-85.9c-10.8,0-18.2-8.7-16.7-19.5c1.5-10.8,11.5-19.5,22.3-19.5H621c10.8,0,18.2,8.7,16.7,19.5  C636.2,389.1,626.2,397.9,615.4,397.9z" style="fill:#EAE2C2;"/>
<path d="M626.8,352.6H446.7c-9.3,0-16.8-7.5-16.8-16.8v-7.2c0-9.3,7.5-16.8,16.8-16.8h180c7.4,0,13.4,6,13.4,13.4v14.1  C640.1,346.6,634.2,352.6,626.8,352.6z" style="fill:#E5A024;"/>
<path d="M623.3,348.1H507.4c-8.8,0-16.2-7.1-16.6-15.9c-0.4-8.8,6.5-15.9,15.3-15.9H622c8.8,0,16.2,7.1,16.6,15.9  C639,341,632.1,348.1,623.3,348.1z" style="fill:#EAE2C2;"/>
<path d="M500.3,370.8h-53.8c-3.4,0-6.2-2.8-6.2-6.2c0-3.4,2.8-6.2,6.2-6.2h53.8c3.4,0,6.2,2.8,6.2,6.2  C506.5,368,503.7,370.8,500.3,370.8z" style="fill:#574730;"/>

            </g>
        </g>
    </g>
    
    <!-- ITEM 1 -->
    <g>
        <defs>
            <clipPath id="clip-path-id-viewbox-item-1">
                <rect x="0.0" y="0.0" width="34.67" height="39.07"/>
            </clipPath>
        </defs>
        <g transform="translate(1163.0 648.0) rotate(0.0 46.0 51.0) scale(2.653591000865301 2.6106987458407986)">
            <g clip-path="url(#clip-path-id-viewbox-item-1)" transform="translate(-0.0 -0.0)">
                <title>picnic_3</title><g id="Layer_2-i1" data-name="Layer 2"><g id="picnic_3-i1"><path d="M18.46,13a1.56,1.56,0,0,1-.87-.27c-.41-.3-4-3.09-1.9-11.58a1.5,1.5,0,1,1,2.91.7c-1.56,6.47.7,8.41.72,8.42a1.51,1.51,0,0,1,.36,2.1A1.49,1.49,0,0,1,18.46,13Z" style="fill:#3b301b"/><path d="M34.67,23.6c0,9.57-7.76,15.47-17.34,15.47S0,33.17,0,23.6,4,5.84,17.33,9.12C29.33,5.51,34.67,14,34.67,23.6Z" style="fill:#cf4327"/><path d="M6.5,24.12A1.5,1.5,0,0,1,5,22.87c-.52-3.21,0-5.74,1.49-7.52A7.29,7.29,0,0,1,11.67,13a1.5,1.5,0,0,1,0,3,4.24,4.24,0,0,0-2.9,1.35c-.9,1.09-1.17,2.79-.8,5.07a1.51,1.51,0,0,1-1.24,1.73Z" style="fill:#db6653"/></g></g>
            </g>
        </g>
    </g>
    
    <!-- ITEM 2 -->
    <g>
        <defs>
            <clipPath id="clip-path-id-viewbox-item-2">
                <rect x="0.0" y="0.0" width="115.361" height="106.105"/>
            </clipPath>
        </defs>
        <g transform="translate(1105.0 747.0) rotate(0.0 185.5 171.0) scale(3.2159915396017715 3.223222279817162)">
            <g clip-path="url(#clip-path-id-viewbox-item-2)" transform="translate(-0.0 -0.0)">
                
<g>
	<path style="fill:#e5a024;" d="M115.36,2.5c-0.021-1.372-1.128-2.479-2.5-2.5H2.53C1.147,0.005,0.022,1.117,0,2.5v14   c0.021,1.372,1.128,2.479,2.5,2.5h3.74c0,0.16,0,0.31,0,0.47v79.39c0,9.65,15,9.67,15,0v-66.8h73.67v66.8c0,9.65,15,9.67,15,0V19.5   c0-0.16,0-0.32,0-0.47h3c0.631,0.017,1.242-0.225,1.69-0.67l0.08-0.08l0,0c0.451-0.449,0.697-1.064,0.68-1.7V2.5z"/>
</g>

            </g>
        </g>
    </g>
    
    <!-- ITEM 3 -->
    <g>
        <defs>
            <clipPath id="clip-path-id-viewbox-item-3">
                <rect x="0.0" y="0.0" width="945.02" height="525.86"/>
            </clipPath>
        </defs>
        <g transform="translate(721.0 206.0) rotate(0.0 307.0 171.0) scale(0.6497216990116611 0.6503632145437949)">
            <g clip-path="url(#clip-path-id-viewbox-item-3)" transform="translate(-0.0 -0.0)">
                
<g>
	<path style="fill:#E5A024;" d="M915.02,525.86H30c-16.569,0-30-13.431-30-30V30C0,13.431,13.431,0,30,0l885.02,0   c16.569,0,30,13.431,30,30v465.86C945.02,512.428,931.588,525.86,915.02,525.86z"/>
	<path style="fill:#F3BC63;" d="M54.263,425.579c-8.787,0-15.91-7.123-15.91-15.91V53.28c0-8.787,7.123-15.91,15.91-15.91H453.61   c8.787,0,15.91,7.123,15.91,15.91s-7.123,15.91-15.91,15.91H70.174v340.479C70.174,418.456,63.05,425.579,54.263,425.579z"/>
</g>

            </g>
        </g>
    </g>
    
    <!-- ITEM 4 -->
    <g>
        <defs>
            <clipPath id="clip-path-id-viewbox-item-4">
                <rect x="0.0" y="0.0" width="1564.872" height="1165.481"/>
            </clipPath>
        </defs>
        <g transform="translate(150.0 280.0) rotate(0.0 537.0 401.0) scale(0.6863181141971995 0.6881279059890294)">
            <g clip-path="url(#clip-path-id-viewbox-item-4)" transform="translate(-0.0 -0.0)">
                
<g>
	<path style="fill:#3B301B;" d="M629.121,155.317c10.314,23.004,6.065,51.816-10.449,70.864   c20.805-1.481,41.867,11.407,50.018,30.607s2.792,43.303-12.725,57.242c-4.154,3.731-9.122,7.025-11.242,12.19   c-2.471,6.02-0.39,12.802,0.378,19.264c2.985,25.105-16.407,49.572-40.671,56.672c-24.265,7.101-51.245-1.009-71.029-16.749   c-19.785-15.741-33.172-38.243-42.778-61.629c-16.412-39.956-22.801-85.181-10.904-126.706c9.747-34.02,33.631-66.853,66.23-82.121   C575.443,101.139,616.832,127.908,629.121,155.317z"/>
	<path style="fill:#CF4327;" d="M626.209,257.122c14.168,4.909,21.282,21.897,19.347,36.767   c-1.936,14.869-10.834,27.855-20.36,39.435c-3.662,4.452-7.524,8.853-12.344,12.014c-4.821,3.161-10.771,4.986-16.414,3.803   c-5.607-1.175-10.324-5.218-13.303-10.112c-2.978-4.894-4.391-10.585-5.191-16.257c-2.303-16.328,0.417-34.86,6.597-50.188   C590.068,258.88,613.282,252.643,626.209,257.122z"/>
	<path style="fill:#CF4327;" d="M983.477,458.302c-3.207,0-6.412-1.226-8.854-3.676c-16.029-16.084-21.814-40.846-14.067-60.217   c5.176-12.943,15.818-20.868,28.466-21.2c11.462-0.279,33.653,6.364,35.516,23.782c0.734,6.864-4.235,13.024-11.1,13.758   c-6.298,0.68-11.989-3.444-13.463-9.42c-2.023-1.495-7.457-3.199-10.296-3.128c-2.491,0.064-4.479,1.912-5.911,5.491   c-3.416,8.543-1.576,23.112,8.563,33.285c4.873,4.891,4.86,12.805-0.03,17.678C989.861,457.087,986.668,458.302,983.477,458.302z    M999.679,399.65c0,0.003,0,0.005,0.001,0.008C999.68,399.655,999.68,399.653,999.679,399.65z"/>
	<path style="fill:#CF4327;" d="M364.929,1164.92c-17.949,0-32.5-14.551-32.5-32.5v-110.433c0-17.949,14.551-32.5,32.5-32.5   s32.5,14.551,32.5,32.5v110.433C397.429,1150.369,382.878,1164.92,364.929,1164.92z"/>
	<path style="fill:#CF4327;" d="M541.349,1164.92c-17.949,0-32.5-14.551-32.5-32.5v-110.433c0-17.949,14.551-32.5,32.5-32.5   s32.5,14.551,32.5,32.5v110.433C573.849,1150.369,559.298,1164.92,541.349,1164.92z"/>
	<path style="fill:#3B301B;" d="M408.989,1108.526c-23.922,3.892-47.844,4.481-71.766,1.767   c-13.489-1.584-24.746-16.267-25.068-31.228c-1.911-97.611-1.714-195.223,0.589-292.834c35.976-7.469,71.951-7.469,107.927,0   c2.415,102.368,2.513,204.735,0.295,307.103C420.807,1100.5,415.435,1107.462,408.989,1108.526z"/>
	<path style="fill:#3B301B;" d="M575.329,1110.292c-23.922,2.714-47.844,2.125-71.766-1.767c-6.447-1.063-11.814-8.02-11.978-15.192   c-2.219-102.368-2.121-204.735,0.295-307.103c35.976-7.469,71.951-7.469,107.927,0c2.304,97.611,2.5,195.223,0.589,292.834   C600.073,1094.023,588.816,1108.708,575.329,1110.292z"/>
	<path style="fill:#3B301B;" d="M598.513,97.652c0.256-21.202-9.75-43.004-27.847-54.053s-44.045-9.082-58.279,6.634   c4.085-21.128-14.292-41.52-35.15-46.812c-20.858-5.292-39.764-4.565-59.897,3.032c-8.829,3.331-20.93,12.511-27.248,19.52   c-6.318,7.009-9.139,18.036-4.146,26.043c-37.119-9.179-79.085,6.143-101.559,37.079c-4.39,6.043-8.183,12.965-8.276,20.434   c-0.093,7.469,4.569,15.411,11.892,16.886c-19.534,8.382-39.402,16.968-55.532,30.813c-16.13,13.844-28.235,34.021-27.165,55.25   c1.07,21.229,18.455,41.975,39.711,41.989c-13.269,11.388-26.738,23.005-36.12,37.761c-9.382,14.756-14.245,33.384-8.759,49.987   c5.486,16.603,23.338,29.481,40.386,25.596c-11.049,23.114,0.483,52.821,21.83,66.987s49.619,14.646,73.958,6.651   c24.34-7.995,45.445-23.515,65.153-39.883c31.838-26.443,63.424-60.567,63.369-101.954c-0.027-20.921-7.703-44.437,4.93-61.114   c8.85-11.683,24.495-15.188,38.162-20.483C550.656,201.459,597.935,145.504,598.513,97.652z"/>
	<path style="fill:#3B301B;" d="M497.358,874.936c8.914,0.061,18.908-0.449,25.95-6.979c7.96-7.348,8.184-18.825,7.092-28.824   c-1.373-13.98-4.553-29.168-15.691-39.214c-11.249-10.181-26.864-12.042-41.139-13.079c-17.909-1.34-35.876-2.374-53.452,2.348   c-17.487,4.721-35.522,16.031-43.315,32.504c-5.128,10.731-6.752,28.097-1.491,39.367c4.932,10.728,12.77,10.232,23.061,10.861   C431.506,873.981,464.502,874.758,497.358,874.936z"/>
	<path style="fill:#E5A024;" d="M623.167,805.899c-0.48,8.71-8.51,16.43-17.89,17.14c-99,7.45-198,7.45-297,0   c-9.38-0.71-17.41-8.43-17.89-17.14c-6.03-112.31-6.5-224.61-1.39-336.92c1.17-24.13,23.52-45.64,49.53-47.28   c13.14-0.79,26.28-1.44,39.42-1.97c52.55-2.09,105.11-2.09,157.66,0c13.14,0.53,26.28,1.18,39.42,1.97   c26.01,1.64,48.37,23.15,49.53,47.28C629.667,581.289,629.196,693.589,623.167,805.899z"/>
	<path style="fill:#CF4327;" d="M535.606,419.729l-64.08,85.02c-7.39,9.8-22.11,9.8-29.5,0l-64.08-85.02   C430.497,417.639,483.057,417.639,535.606,419.729z"/>
	<path style="fill:#CF4327;" d="M531.109,281.956c-52.59,9.771-106.548,9.771-159.14,0c-41.855-7.648-74.41,12.827-74.392,54.57   c0.001,0,0.001,0,0,0c-0.018,41.508,33.642,85.919,74.392,98.151c49.808,14.951,107.808,14.451,159.14,0   c40.964-11.532,74.407-56.643,74.392-98.151l0,0C605.514,294.794,572.972,274.309,531.109,281.956z"/>
	<path style="fill:#CF4327;" d="M491.352,145.268h-76.735c-54.124,0-98,43.876-98,98v87.189c0,28.167,22.833,51,51,51h170.735   c28.167,0,51-22.833,51-51v-87.189C589.352,189.144,545.476,145.268,491.352,145.268z"/>
	<path style="fill:#3B301B;" d="M427.447,314.911c0-18.684,15.146-12.845,33.83-12.845c18.684,0,33.83-5.839,33.83,12.845   c0,18.684-15.146,33.92-33.83,33.92C442.593,348.83,427.447,333.594,427.447,314.911z"/>
	
		<ellipse transform="matrix(0.2929 -0.9562 0.9562 0.2929 129.9312 680.7158)" style="fill:#EAE2C2;" cx="525.179" cy="252.515" rx="46.575" ry="41.22"/>
	
		<ellipse transform="matrix(0.2929 -0.9562 0.9562 0.2929 135.6856 699.4148)" style="fill:#3B301B;" cx="540.698" cy="257.974" rx="26.079" ry="23.08"/>
	
		<ellipse transform="matrix(0.9562 -0.2929 0.2929 0.9562 -56.529 127.447)" style="fill:#EAE2C2;" cx="397.373" cy="252.515" rx="41.22" ry="46.575"/>
	<path style="fill:#3B301B;" d="M431.317,207.602c22.302,7.121,49.053-8.314,54.049-31.186c4.125,11.602,16.558,18.824,28.848,19.59   c12.289,0.766,24.331-3.898,34.967-10.101c18.357-10.707,35.006-29.288,33.096-50.453c-1.571-17.408-15.899-31.797-32.394-37.579   s-34.696-4.281-51.736-0.388c-29.125,6.653-73.029,23.305-90.906,49.173C392.956,167.325,408.606,200.35,431.317,207.602z"/>
	<path style="fill:#EAE2C2;" d="M417.366,382.696c-11.431,0-22.942-4.258-31.509-11.8c-9.678-8.521-15.676-21.303-16.045-34.192   c-0.158-5.521,4.189-10.124,9.71-10.282c5.482-0.143,10.124,4.189,10.282,9.71c0.213,7.445,3.678,14.829,9.269,19.752   c5.59,4.921,13.353,7.423,20.766,6.691c5.503-0.549,10.392,3.473,10.935,8.969c0.542,5.496-3.473,10.392-8.969,10.934   C420.332,382.624,418.849,382.696,417.366,382.696z"/>
	<path style="fill:#E5A024;" d="M185.738,677.007c-0.85,0-1.702-0.029-2.556-0.087c-12.049-0.822-22.964-7.397-29.325-17.663   L68.361,521.264c-7.367-11.472,2.37-27.128,19.975-38.035c17.606-10.908,35.45-14.605,43.78-1.465l57.994,93.605l111.743-135.136   c13.198-15.961,36.836-18.201,52.797-5.003c15.961,13.198,18.201,36.836,5.003,52.797L214.634,663.404   C207.484,672.051,196.87,677.007,185.738,677.007z"/>
	<path style="fill:#E5A024;" d="M764.278,610.129c-6.624,0-13.232-1.753-19.109-5.233l-183.226-108.5   c-17.821-10.553-23.712-33.554-13.16-51.375c10.553-17.821,33.554-23.712,51.374-13.16l165.743,98.147l167.057-82.445   c18.572-9.166,27.104,6.042,36.269,24.614c9.166,18.572,22.37,29.507-3.078,42.642l-185.278,91.437   C775.63,608.844,769.948,610.129,764.278,610.129z"/>
	<path style="fill:#CF4327;" d="M414.552,1165.481H363.26c-9.941,0-18-8.059-18-18s8.059-18,18-18h51.292c9.941,0,18,8.059,18,18   S424.493,1165.481,414.552,1165.481z"/>
	<path style="fill:#CF4327;" d="M590.405,1165.481h-51.292c-9.941,0-18-8.059-18-18s8.059-18,18-18h51.292c9.941,0,18,8.059,18,18   S600.346,1165.481,590.405,1165.481z"/>
	<path style="fill:#CF4327;" d="M422.565,663.654c-3.837,0-7.498-2.222-9.15-5.956l-38.95-88.022   c-1.263-2.854-1.121-6.134,0.383-8.868l19.937-36.23l-41.501-11.743c-15.916-4.503-26.754-19.756-25.772-36.268l2.115-35.532   c0.329-5.513,5.064-9.698,10.577-9.388c5.513,0.328,9.716,5.063,9.388,10.577l-2.115,35.531   c-0.429,7.209,4.303,13.869,11.252,15.835l53.604,15.167c2.933,0.83,5.328,2.952,6.503,5.765c1.176,2.813,1.005,6.008-0.465,8.679   l-23.613,42.911l36.946,83.493c2.235,5.051-0.047,10.957-5.098,13.191C425.291,663.378,423.917,663.654,422.565,663.654z"/>
	<path style="fill:#CF4327;" d="M479.569,663.654c-1.352,0-2.725-0.276-4.041-0.858c-5.051-2.234-7.333-8.141-5.098-13.191   l36.946-83.493L483.763,523.2c-1.47-2.671-1.641-5.866-0.465-8.679c1.176-2.812,3.57-4.935,6.503-5.765l53.603-15.167   c6.949-1.966,11.682-8.626,11.252-15.835l-2.115-35.532c-0.328-5.513,3.875-10.248,9.388-10.576   c5.515-0.316,10.248,3.875,10.577,9.389l2.115,35.531c0.983,16.512-9.855,31.765-25.772,36.268l-41.5,11.743l19.936,36.23   c1.504,2.734,1.646,6.014,0.383,8.868l-38.95,88.022C487.066,661.432,483.406,663.653,479.569,663.654z"/>
	<path style="fill:#CF4327;" d="M277.464,257.122c-14.168,4.909-21.282,21.897-19.347,36.767   c1.936,14.869,10.834,27.855,20.36,39.435c3.662,4.452,7.524,8.853,12.344,12.014c4.821,3.161,10.771,4.986,16.414,3.803   c5.607-1.175,10.324-5.218,13.303-10.112c2.978-4.894,4.391-10.585,5.191-16.257c2.303-16.328-0.417-34.86-6.598-50.188   C313.605,258.88,290.391,252.643,277.464,257.122z"/>
	<path style="fill:#CF4327;" d="M451.539,815.295c-5.523,0-10-4.478-10-10V528.628c0-0.897,0.121-1.791,0.359-2.657l9.738-35.333   c1.468-5.324,6.978-8.451,12.297-6.983c5.325,1.468,8.451,6.974,6.984,12.298l-9.378,34.028v275.314   C461.539,810.818,457.062,815.295,451.539,815.295z"/>
	<path style="fill:#F3BC63;" d="M314.517,788.265c-6.619,0-12.143-5.196-12.475-11.88l-8.244-166.087   c-0.342-6.896,4.97-12.763,11.865-13.104c6.887-0.355,12.762,4.97,13.104,11.864l8.244,166.087   c0.342,6.896-4.97,12.763-11.865,13.104C314.936,788.26,314.726,788.265,314.517,788.265z"/>
	<path style="fill:#F3BC63;" d="M186.917,650.53c-12.035,0-24.351-6.464-34.714-18.461c-2.764-3.2-5.224-6.485-7.602-9.663   c-4.219-5.636-8.203-10.959-12.938-14.438c-5.563-4.089-6.757-11.913-2.668-17.476s11.912-6.757,17.475-2.669   c7.721,5.676,13.259,13.074,18.145,19.603c2.218,2.964,4.314,5.763,6.507,8.302c4.541,5.257,11.882,10.926,17.626,9.596   c4.248-0.982,8.642-5.886,13.146-11.258l34.401-41.032c4.436-5.289,12.32-5.981,17.61-1.548c5.29,4.436,5.983,12.32,1.547,17.61   l-34.4,41.032c-5.544,6.612-13.922,16.604-26.672,19.553C191.918,650.25,189.423,650.53,186.917,650.53z"/>
	<path style="fill:#F3BC63;" d="M763.148,589.705c-1.203,0-2.407-0.026-3.62-0.081c-9.747-0.436-19.798-2.614-31.634-6.858   c-24.387-8.745-47.058-22.954-65.561-41.09c-4.93-4.832-5.009-12.746-0.177-17.677c4.832-4.93,12.746-5.01,17.677-0.177   c15.945,15.629,35.483,27.874,56.499,35.41c9.412,3.375,17.137,5.097,24.312,5.417c24.552,1.097,47.351-13.561,72.472-31.377   c5.633-3.993,13.434-2.665,17.428,2.965c3.994,5.632,2.666,13.434-2.965,17.428C826.018,568.956,796.76,589.705,763.148,589.705z"/>
	<path style="fill:#574730;" d="M251.249,357.171c-14.4,0.001-28.295-8.148-35.054-21.061c-7.607-14.532-5.103-33.057,6.088-45.049   c4.711-5.045,12.62-5.319,17.667-0.61c5.047,4.71,5.32,12.62,0.61,17.667c-3.88,4.157-4.854,11.36-2.216,16.398   c2.637,5.039,9.114,8.342,14.737,7.523c6.829-0.997,13.176,3.737,14.171,10.568c0.995,6.832-3.737,13.176-10.568,14.171   C254.874,357.043,253.056,357.171,251.249,357.171z"/>
	<path style="fill:#574730;" d="M259.003,249.473c-0.904,0-1.821-0.099-2.739-0.304c-18.742-4.191-33.423-20.436-35.701-39.505   c-2.278-19.07,8.163-38.316,25.39-46.804c6.192-3.052,13.686-0.505,16.737,5.688c3.051,6.192,0.504,13.686-5.688,16.737   c-7.631,3.76-12.625,12.965-11.616,21.413c1.009,8.447,8.031,16.217,16.333,18.074c6.737,1.506,10.978,8.189,9.471,14.926   C269.889,245.517,264.727,249.473,259.003,249.473z"/>
	<path style="fill:#574730;" d="M306.306,120.735c-1.284,0-2.589-0.199-3.877-0.619c-6.563-2.14-10.149-9.195-8.01-15.759   c7.697-23.609,31.305-40.994,56.134-41.336c6.938-0.07,12.576,5.424,12.671,12.327c0.095,6.903-5.424,12.576-12.327,12.671   c-14.235,0.196-28.298,10.551-32.71,24.087C316.468,117.383,311.57,120.735,306.306,120.735z"/>
	<path style="fill:#574730;" d="M490.712,59.093c-4.703,0-9.208-2.667-11.332-7.209c-4.088-8.744-12.497-15.404-21.946-17.38   c-9.447-1.978-19.821,0.756-27.07,7.129c-5.185,4.559-13.083,4.05-17.641-1.134s-4.05-13.083,1.134-17.641   c13.04-11.464,31.698-16.38,48.695-12.825c16.997,3.555,32.123,15.534,39.476,31.263c2.924,6.254,0.224,13.694-6.03,16.618   C494.286,58.714,492.485,59.093,490.712,59.093z"/>
	<path style="fill:#574730;" d="M524.148,178.059c-9.603,0-18.706-3.661-24.848-10.48c-4.621-5.129-4.208-13.033,0.921-17.653   c5.128-4.62,13.032-4.209,17.653,0.921c2.088,2.317,7.023,2.878,11.235,1.278c4.871-1.851,9.624-5.966,14.958-12.951   c11.433-14.973,18.553-32.785,20.591-51.513c0.748-6.864,6.923-11.818,13.779-11.074c6.863,0.747,11.821,6.917,11.074,13.779   c-2.532,23.26-11.375,45.383-25.575,63.979c-5.213,6.827-13.575,16.447-25.947,21.149   C533.442,177.222,528.737,178.059,524.148,178.059z"/>
	<path style="fill:#574730;" d="M442.003,190.974c-12.994,0-25.667-8.163-30.506-20.422c-2.534-6.422,0.617-13.682,7.039-16.216   c6.422-2.534,13.682,0.618,16.216,7.039c1.164,2.951,5.203,5.137,8.31,4.497c3.107-0.639,5.954-4.241,5.859-7.412   c-0.208-6.9,5.219-12.662,12.119-12.869c6.894-0.212,12.662,5.219,12.869,12.119c0.458,15.236-10.879,29.577-25.81,32.649   C446.081,190.774,444.037,190.974,442.003,190.974z"/>
	<path style="fill:#574730;" d="M288.639,429.776c-10.978,0-21.78-4.336-29.664-12.077c-9.096-8.931-13.73-21.832-12.399-34.509   c0.721-6.866,6.869-11.854,13.738-11.126c6.866,0.722,11.847,6.872,11.125,13.737c-0.535,5.088,1.401,10.476,5.051,14.06   c3.65,3.583,9.07,5.416,14.148,4.793c6.852-0.849,13.092,4.021,13.939,10.871c0.847,6.852-4.021,13.093-10.872,13.939   C292.021,429.673,290.327,429.776,288.639,429.776z"/>
	<path style="fill:#E5A024;" d="M334.751,330.253c-9.106,0-18.228-2.909-25.508-8.397c-4.41-3.325-5.29-9.595-1.965-14.005   c3.324-4.409,9.593-5.291,14.005-1.965c5.42,4.086,13.118,5.454,19.615,3.479c5.287-1.604,10.869,1.379,12.474,6.664   c1.605,5.284-1.378,10.869-6.663,12.474C342.835,329.679,338.794,330.253,334.751,330.253z"/>
	<path style="fill:#E5A024;" d="M326.695,368.548c-7.451,0-14.909-1.903-21.376-5.615c-4.79-2.75-6.444-8.861-3.695-13.651   c2.749-4.79,8.86-6.445,13.651-3.695c5.578,3.201,12.542,3.873,18.628,1.797c5.228-1.785,10.91,1.009,12.693,6.236   c1.783,5.228-1.009,10.91-6.236,12.693C335.968,367.811,331.332,368.548,326.695,368.548z"/>
	<path style="fill:#E5A024;" d="M341.343,404.422c-2.494,0-4.999-0.337-7.438-1.024c-5.315-1.5-8.409-7.024-6.91-12.34   c1.499-5.314,7.024-8.409,12.339-6.91c2.216,0.628,4.83,0.125,6.658-1.273c4.386-3.356,10.663-2.521,14.019,1.864   c3.356,4.386,2.521,10.662-1.864,14.019C353.296,402.468,347.349,404.422,341.343,404.422z"/>
	
		<ellipse transform="matrix(0.2929 -0.9562 0.9562 0.2929 46.5575 578.9006)" style="fill:#3B301B;" cx="414.658" cy="257.974" rx="26.079" ry="23.08"/>
	<path style="fill:#CF4327;" d="M100.217,527.31c-9.96,0-19.602-5.327-24.665-14.707l-8.134-15.071   c-7.345-13.608-2.267-30.595,11.341-37.939c13.609-7.343,30.594-2.267,37.939,11.342l8.134,15.071   c7.345,13.608,2.267,30.595-11.341,37.939C109.263,526.227,104.708,527.31,100.217,527.31z"/>
	<path style="fill:#CF4327;" d="M89.418,481.723c-5.392,0-10.368-3.516-11.979-8.949c-1.962-6.619,1.812-13.575,8.431-15.538   c13.161-3.902,23.675-16.651,25.001-30.314c0.667-6.871,6.771-11.906,13.649-11.234c6.871,0.667,11.901,6.777,11.234,13.648   c-2.305,23.756-19.896,45.085-42.778,51.869C91.792,481.556,90.594,481.723,89.418,481.723z"/>
	<path style="fill:#CF4327;" d="M81.174,482.706c-0.121,0-0.242-0.002-0.363-0.005c-10.43-0.298-20.977-1.881-31.348-4.706   c-10.07-2.744-17.658-6.154-23.881-10.731c-9.513-7.001-15.207-16.85-15.232-26.347c-0.018-6.904,5.563-12.515,12.467-12.533   c0.011,0,0.022,0,0.033,0c6.889,0,12.481,5.574,12.5,12.467c0.028,0.701,1.278,3.502,5.047,6.275   c3.664,2.695,8.632,4.84,15.637,6.748c8.462,2.306,17.038,3.597,25.489,3.837c6.901,0.197,12.335,5.95,12.139,12.852   C93.469,477.341,87.912,482.706,81.174,482.706z"/>
	<path style="fill:#CF4327;" d="M35.097,502.314c-9.174,0-18.235-1.499-26.775-4.53c-6.506-2.31-9.908-9.456-7.598-15.962   c2.309-6.506,9.457-9.903,15.961-7.599c14.632,5.193,31.696,3.82,46.815-3.767c6.169-3.099,13.682-0.605,16.779,5.564   s0.605,13.683-5.565,16.779C62.143,499.11,48.501,502.314,35.097,502.314z"/>
	<path style="fill:#CF4327;" d="M33.41,532.075c-0.583,0-1.165-0.007-1.749-0.02c-6.902-0.152-12.373-5.871-12.221-12.773   c0.152-6.901,5.878-12.323,12.773-12.221c16.659,0.358,32.746-7.068,39.997-18.505c3.697-5.831,11.419-7.56,17.25-3.863   c5.831,3.696,7.56,11.419,3.864,17.25C81.644,520.368,58.267,532.075,33.41,532.075z"/>
	<path style="fill:#CF4327;" d="M954.985,505.367c-9.676,0-19.085-5.02-24.272-14.001c-7.734-13.391-3.149-30.516,10.242-38.25   l24.795-14.321c13.391-7.736,30.516-3.149,38.25,10.242c7.734,13.391,3.149,30.516-10.242,38.25l-24.795,14.321   C964.553,504.156,959.737,505.367,954.985,505.367z"/>
	<path style="fill:#3B301B;" d="M1559.602,320.425L865.985,477.17c-11.315,2.557-22.56-4.543-25.116-15.857   c-2.557-11.315,4.542-22.559,15.857-25.116c0.247-0.056,0.577-0.122,0.824-0.169l699.338-128.841   c3.671-0.676,7.195,1.751,7.871,5.422C1565.418,316.185,1563.116,319.626,1559.602,320.425z"/>
	<path style="fill:#CF4327;" d="M1008.008,503.135c-12.011,0-23.739-5.308-31.039-14.361c-4.333-5.375-3.488-13.244,1.886-17.577   c5.375-4.334,13.244-3.489,17.577,1.886c2.901,3.6,8.721,5.65,13.831,4.887c4.873-0.732,9.388-4.108,10.735-8.027   c1.211-3.525-0.112-7.881-3.218-10.592c-5.201-4.54-5.737-12.437-1.197-17.637c4.539-5.201,12.436-5.737,17.637-1.197   c10.731,9.367,14.919,24.458,10.42,37.551c-4.407,12.823-16.444,22.489-30.666,24.625   C1011.992,502.99,1009.996,503.135,1008.008,503.135z"/>
	<path style="fill:#CF4327;" d="M1020.304,486.683c-5.849,0-11.697-0.766-17.421-2.301c-6.667-1.79-10.623-8.646-8.833-15.313   c1.789-6.669,8.646-10.62,15.313-8.834c8.271,2.22,16.979,1.874,25.181-1.003c5.552-1.946,9.125-4.532,11.585-8.385   c2.928-4.584,3.982-11.961,2.35-16.445c-2.361-6.487,0.984-13.66,7.471-16.021c6.486-2.362,13.661,0.983,16.021,7.472   c4.296,11.803,2.377,27.256-4.773,38.451c-5.522,8.646-13.498,14.704-24.383,18.52   C1035.489,485.394,1027.895,486.683,1020.304,486.683z"/>
	<path style="fill:#CF4327;" d="M1057.202,478.08c-6.301,0-11.72-4.75-12.413-11.157c-0.742-6.864,4.221-13.029,11.084-13.771   c5.312-0.574,10.455-3.138,14.112-7.033c3.656-3.896,5.89-9.191,6.127-14.529c0.307-6.896,6.143-12.255,13.043-11.933   c6.896,0.307,12.239,6.146,11.933,13.042c-0.506,11.381-5.078,22.223-12.875,30.529c-7.797,8.307-18.328,13.555-29.654,14.779   C1058.104,478.055,1057.65,478.08,1057.202,478.08z"/>
	<path style="fill:#574730;" d="M361.254,1097.261c-10.693,0-21.598-5.27-28.011-13.604c-10.119-13.147-10.55-29.72-10.865-41.821   l-3.77-144.9c-0.18-6.901,5.269-12.642,12.17-12.821c6.906-0.182,12.641,5.271,12.821,12.171l3.77,144.9   c0.292,11.233,0.922,21.035,5.686,27.225c1.759,2.285,5.39,3.965,8.417,3.847c0.525-0.016,1.791-0.116,2.192-0.707   c3.875-5.713,11.649-7.203,17.361-3.328c5.713,3.875,7.204,11.647,3.328,17.361c-4.839,7.136-12.907,11.387-22.132,11.663   C361.899,1097.256,361.576,1097.261,361.254,1097.261z"/>
	<path style="fill:#574730;" d="M512.718,1073.75c-6.903,0-12.5-5.597-12.5-12.5V954.491c0-6.903,5.597-12.5,12.5-12.5   c6.903,0,12.5,5.597,12.5,12.5v106.759C525.218,1068.153,519.621,1073.75,512.718,1073.75z"/>
	<path style="fill:#DB6653;" d="M529.627,411.242c-5.345,0-10.292-3.455-11.944-8.832c-2.027-6.599,1.678-13.592,8.277-15.619   c22.15-6.806,39.004-30.281,38.37-53.443c-0.189-6.901,5.252-12.648,12.153-12.837c6.905-0.227,12.648,5.252,12.837,12.153   c0.941,34.38-23.141,67.924-56.018,78.025C532.08,411.063,530.843,411.242,529.627,411.242z"/>
</g>

            </g>
        </g>
    </g>
    
    <!-- ITEM 5 -->
    <g>
        <defs>
            <clipPath id="clip-path-id-viewbox-item-5">
                <rect x="0.0" y="0.0" width="84.842" height="67.25"/>
            </clipPath>
        </defs>
        <g transform="translate(1385.0 989.0) rotate(0.0 66.0 52.0) scale(1.5558331958228235 1.546468401486989)">
            <g clip-path="url(#clip-path-id-viewbox-item-5)" transform="translate(-0.0 -0.0)">
                
<path style="fill:#3B301B;" d="M84.477,41.844c-0.346-1.07-1.42-1.728-2.53-1.55c-8.038,0.697-15.838,3.082-22.89,7  c3.96-8.3,7.537-16.767,10.73-25.4c0.92-2.49-2.14-4.17-4.14-3.18c-9.593,4.764-18.064,11.513-24.85,19.8  c1.391-11.828,2.039-23.731,1.94-35.64c0-2.24-3.2-4-4.81-2c-10.439,12.852-17.377,28.185-20.14,44.51l-1.39-1.87  c-3.72-5-7.46-10-11.49-14.75c-1.72-2.05-4.61-0.19-4.81,2c-0.376,5.628,0.34,11.275,2.11,16.63c1.21,4,2.13,8.5,3.82,12.35  c4.19,9.54,16.29,7.2,24.81,7.32c10.2,0.14,22.89,1.07,32.43-3.07c8.85-3.85,15.92-11.47,21.1-19.44  C84.957,43.759,85.001,42.684,84.477,41.844z"/>

            </g>
        </g>
    </g>
    
    <!-- ITEM 6 -->
    <g>
        <defs>
            <clipPath id="clip-path-id-viewbox-item-6">
                <rect x="0.0" y="0.0" width="185.305" height="208.418"/>
            </clipPath>
        </defs>
        <g transform="translate(1330.0 958.0) rotate(100.98668750008932 65.0 73.0) scale(0.7015460996735112 0.7005153105777812)">
            <g clip-path="url(#clip-path-id-viewbox-item-6)" transform="translate(-0.0 -0.0)">
                
<g>
	<path style="fill:#CF4327;" d="M178.923,126.117c-2.472,3.444-4.944,6.889-7.417,10.333c-2.373,2.911-4.747,5.822-7.12,8.733   c2.65-5.34-2.93-12.94-8.75-8.76c-22.384,16.014-39.697,38.121-49.88,63.69c-1.82,4.53,3.62,9.61,8,8   c27.883-9.978,52.132-28.093,69.61-52c1.228-1.68,1.22-3.797,1.22-3.797C187.056,141.942,182.66,132.234,178.923,126.117z"/>
	<path style="fill:#CF4327;" d="M150.597,109.794l-1.88,1.07l-15.51-13.69c3.4-3.8-0.17-12-6.88-10.83   c-46.688,7.737-90.007,29.223-124.42,61.71c-4.22,4-0.88,11,4.61,11.14c52.777,1.461,104.926-11.741,150.65-38.14   C164.437,116.834,157.877,105.534,150.597,109.794z"/>
	<path style="fill:#CF4327;" d="M164.697,75.794c-30.76-28.41-71.52-43.85-113.07-46.26c-4.6-0.27-8.6,5.89-5.63,9.82   c21,27.72,49.12,48.11,81.14,61.3c5.79,2.39,9.14-4,7.28-8.77l19.17-8.56c0.63,0.57,1.27,1.13,1.89,1.71   C161.627,90.714,170.877,81.534,164.697,75.794z"/>
	<path style="fill:#E5A024;" d="M182.84,121.867c-2.379-23.952-4.255-33.713-5.667-37.5c-0.2-0.536-1.797-4.726-3.624-10.508   c-0.674-2.134-1.096-3.728-1.172-3.835c-23.603-33.394-57.682-57.949-96.83-69.77c-5.36-1.61-10.41,4.78-7.37,9.58   c14.676,23.183,33.131,43.744,54.6,60.83c-30.945-5.567-62.541-6.541-93.77-2.89c-5.29,0.63-9,6.83-4.61,11.14   c29.2,28.62,68.85,36.48,108.29,39.18c-30.76,13.251-59.826,30.13-86.58,50.28c-3.616,2.73-3.905,7.893-1.07,10.527   c1.395,1.297,3.329,1.604,4.36,1.633c33.174,0.926,68.61-10.667,68.61-10.667c0,0,52.995-17.337,62-31.333   c2.441-3.794,3.167-7.833,3.167-7.833C183.827,127.06,183.35,123.929,182.84,121.867z"/>
	<path style="fill:#F3BC63;" d="M46.297,84.534c24.24-2.62,48.37,0.54,72.36,4c8.21,1.18,11.76-11.39,3.47-12.58   c-25.12-3.62-50.43-7.21-75.83-4.46c-8.26,0.89-8.35,14,0,13V84.534z"/>
	<path style="fill:#F3BC63;" d="M85.457,19.824c16.474,8.199,31.081,19.705,42.91,33.8c5.42,6.43,14.61-2.84,9.23-9.23   c-12.591-14.939-28.106-27.142-45.59-35.86c-7.49-3.74-14.11,7.51-6.59,11.27L85.457,19.824z"/>
	<path style="fill:#F3BC63;" d="M72.327,174.444c16.611-12.465,35.368-21.775,55.34-27.47c8.06-2.29,4.64-14.89-3.47-12.58   c-21.077,5.953-40.889,15.706-58.46,28.78C59.087,168.174,65.587,179.474,72.327,174.444z"/>
	<path style="fill:#DB6653;" d="M29.797,150.474c15.457-9.976,32.306-17.605,50-22.64c8.06-2.29,4.64-14.89-3.47-12.58   c-18.788,5.343-36.684,13.43-53.11,24c-7,4.53-0.5,15.83,6.59,11.27L29.797,150.474z"/>
	<path style="fill:#DB6653;" d="M63.367,45.364c7.35,2.331,14.536,5.151,21.51,8.44c7.55,3.58,14.13-7.67,6.59-11.27   c-7.981-3.797-16.206-7.057-24.62-9.76c-8-2.56-11.45,10-3.47,12.58L63.367,45.364z"/>
	<path style="fill:#DB6653;" d="M123.937,199.074c4.502-8.263,11.135-15.169,19.21-20c7.19-4.32,0.64-15.6-6.59-11.27   c-10.004,5.967-18.248,14.479-23.89,24.67c-4.07,7.35,7.2,13.94,11.27,6.59L123.937,199.074z"/>
</g>

            </g>
        </g>
    </g>
    
    <!-- ITEM 7 -->
    <g>
        <defs>
            <clipPath id="clip-path-id-viewbox-item-7">
                <rect x="0.0" y="0.0" width="94.169" height="76.438"/>
            </clipPath>
        </defs>
        <g transform="translate(151.0 954.0) rotate(0.0 66.5 53.5) scale(1.4123543841391542 1.399827311023313)">
            <g clip-path="url(#clip-path-id-viewbox-item-7)" transform="translate(-0.0 -0.0)">
                
<g>
	<path style="fill:#E5A024;" d="M94.053,36.4c0.381-1.15-0.203-2.397-1.33-2.84c-0.813-0.522-1.857-0.522-2.67,0   c-7.605,4.319-14.586,9.655-20.75,15.86c2.809-14.825,3.869-29.928,3.16-45c-0.1-2.09-3-3.87-4.61-1.91   c-10.029,12.565-17.294,27.105-21.32,42.67c-5.26-15.94-11.57-31.52-22.7-44.4C22.767-0.27,21.051-0.259,20,0.807   c-0.32,0.325-0.553,0.725-0.678,1.163c-2.71,15.26,1.14,29.78,6.66,43.8c-6.638-5.439-14.35-9.415-22.63-11.67   c-1.468-0.344-2.937,0.567-3.281,2.035c-0.156,0.667-0.056,1.368,0.281,1.965c5.48,11.16,11.53,23,21.93,30.43   c9.49,6.75,21.47,8.77,32.89,7.59c10.42-1.07,18.57-4.59,25.26-12.84c6.22-7.66,10.17-16.89,13.42-26.13   C93.961,36.913,94.029,36.66,94.053,36.4z"/>
	<path style="fill:#F3BC63;" d="M55.463,50.15c1.33-7.655,3.528-15.133,6.55-22.29c1.75-4.15-5-6-6.77-1.87   c-3.022,7.157-5.22,14.635-6.55,22.29C47.923,52.7,54.693,54.59,55.463,50.15z"/>
	<path style="fill:#F3BC63;" d="M23.303,22.61c0.575,7.759,3.006,15.267,7.09,21.89c2.37,3.83,8.44,0.31,6.06-3.54   c-3.486-5.536-5.589-11.83-6.13-18.35c-0.36-4.47-7.38-4.51-7,0H23.303z"/>
	<path style="fill:#F3BC63;" d="M11.593,48.15c2.337,3.268,5.219,6.11,8.52,8.4c1.676,0.96,3.811,0.399,4.8-1.26   c0.937-1.679,0.381-3.798-1.26-4.8c-2.317-1.612-4.345-3.604-6-5.89c-1.012-1.628-3.119-2.181-4.8-1.26   c-1.52,0.89-2.37,3.25-1.26,4.8L11.593,48.15z"/>
	<path style="fill:#F3BC63;" d="M71.843,59.62l7.2-7.2c3.2-3.2-1.76-8.16-5-5l-7.2,7.2C63.643,57.82,68.603,62.78,71.843,59.62z"/>
</g>

            </g>
        </g>
    </g>
    
    <!-- ITEM 8 -->
    <g>
        <defs>
            <clipPath id="clip-path-id-viewbox-item-8">
                <rect x="0.0" y="0.0" width="122.493" height="76.566"/>
            </clipPath>
        </defs>
        <g transform="translate(142.0 978.0) rotate(0.0 83.5 52.5) scale(1.3633432114488175 1.3713658804168951)">
            <g clip-path="url(#clip-path-id-viewbox-item-8)" transform="translate(-0.0 -0.0)">
                
<g>
	<path style="fill:#3B301B;" d="M117.585,32.876c-6.34,3.2-13.31,4.19-19.12,8.5c-0.84,0.62-1.66,1.26-2.45,1.92   c1.589-11.598,2.361-23.294,2.31-35c0-2.64-3.63-4.47-5.52-2.29c-11.295,13.053-21.13,27.301-29.33,42.49l-14.67-46.18   c-0.522-1.723-2.342-2.697-4.065-2.175c-1.043,0.316-1.859,1.132-2.175,2.175c-6.224,16.759-9.644,34.429-10.12,52.3   c-8.663-7.171-17.905-13.613-27.63-19.26c-2.58-1.5-5.27,1-4.75,3.65c2.15,11.14,5.6,25.33,15,32.76   c5.52,4.38,12.3,5.15,19.11,4.68c8.86-0.61,17.46-0.88,26.35-0.9c14.29,0,30.86,2.23,42.93-7.06   c10.07-7.81,15.07-20.18,18.88-31.96C123.255,33.676,119.965,31.676,117.585,32.876z"/>
	<path style="fill:#574730;" d="M39.525,24.326c-1.637,10.813-1.715,21.805-0.23,32.64c0.72,5.34,8.82,3.06,8.11-2.24   c-1.253-9.354-1.176-18.838,0.23-28.17c0.79-5.29-7.31-7.58-8.11-2.24V24.326z"/>
	<path style="fill:#574730;" d="M84.615,20.806c-5.662,7.746-10.707,15.925-15.09,24.46c-2.47,4.81,4.79,9.07,7.26,4.24   c4.376-8.535,9.415-16.713,15.07-24.46c3.19-4.38-4.1-8.58-7.26-4.24H84.615z"/>
	<path style="fill:#574730;" d="M102.035,53.186l9-6.59c1.83-1.34,2.74-3.65,1.51-5.75c-1.05-1.8-3.91-2.86-5.75-1.51l-9,6.59   c-1.83,1.34-2.74,3.65-1.51,5.75C97.335,53.476,100.195,54.536,102.035,53.186z"/>
	<path style="fill:#574730;" d="M10.115,54.926l2.59,3.23c0.796,0.794,1.876,1.237,3,1.23c1.123-0.001,2.2-0.442,3-1.23   c0.792-0.797,1.235-1.876,1.23-3c-0.055-1.111-0.489-2.17-1.23-3l-2.59-3.23c-0.796-0.794-1.876-1.237-3-1.23   c-1.123,0.001-2.2,0.442-3,1.23c-0.792,0.797-1.235,1.876-1.23,3C8.94,53.037,9.374,54.096,10.115,54.926z"/>
</g>

            </g>
        </g>
    </g>
    
    <!-- ITEM 9 -->
    <g>
        <defs>
            <clipPath id="clip-path-id-viewbox-item-9">
                <rect x="0.0" y="0.0" width="45.612" height="25.927"/>
            </clipPath>
        </defs>
        <g transform="translate(237.0 163.0) rotate(324.9025419959613 100.0 56.5) scale(4.384811014645269 4.358390866664095)">
            <g clip-path="url(#clip-path-id-viewbox-item-9)" transform="translate(-0.0 -0.0)">
                
<g>
	<path style="fill:#CF4327;" d="M4.882,9.257c-0.66-3.15-5.48-1.82-4.82,1.33l2.82,13.54c0.66,3.15,5.48,1.82,4.82-1.33L4.882,9.257   z"/>
	<path style="fill:#CF4327;" d="M20.072,1.807c-0.91,6.355-1.328,12.771-1.25,19.19c0,3.21,5,3.22,5,0   c-0.101-5.959,0.257-11.916,1.07-17.82C25.332-0.003,20.522-1.373,20.072,1.807z"/>
	<path style="fill:#CF4327;" d="M41.462,11.087l-8.23,9.73c-2.07,2.44,1.45,6,3.54,3.54l8.19-9.73   C47.072,12.187,43.552,8.627,41.462,11.087z"/>
</g>

            </g>
        </g>
    </g>
    
</svg>