<svg width="64" height="64" viewBox="0 0 64 64" fill="none" xmlns="http://www.w3.org/2000/svg">
<g filter="url(#filter0_d)">
<rect x="12" y="8" width="40" height="40" rx="8" fill="url(#paint0_linear)"/>
<path d="M29.5 27.167C29.279 27.167 29.067 27.2548 28.9107 27.4111C28.7545 27.5674 28.6667 27.7793 28.6667 28.0003V31.3337C28.6667 32.2177 29.0178 33.0656 29.643 33.6907C30.2681 34.3158 31.1159 34.667 32 34.667C32.884 34.667 33.7319 34.3158 34.357 33.6907C34.9821 33.0656 35.3333 32.2177 35.3333 31.3337V28.0003C35.3333 27.7793 35.2455 27.5674 35.0892 27.4111C34.933 27.2548 34.721 27.167 34.5 27.167H29.5ZM36.3633 26.3337H37.7358V23.8337C37.7358 23.6126 37.8236 23.4007 37.9799 23.2444C38.1362 23.0881 38.3481 23.0003 38.5692 23.0003C38.7902 23.0003 39.0021 23.0881 39.1584 23.2444C39.3147 23.4007 39.4025 23.6126 39.4025 23.8337V26.3337C39.4025 26.7757 39.2269 27.1996 38.9143 27.5122C38.6018 27.8247 38.1778 28.0003 37.7358 28.0003H37V28.8337H39.5C39.721 28.8337 39.933 28.9215 40.0892 29.0777C40.2455 29.234 40.3333 29.446 40.3333 29.667C40.3333 29.888 40.2455 30.1 40.0892 30.2563C39.933 30.4125 39.721 30.5003 39.5 30.5003H37V31.3337H37.7358C38.1778 31.3337 38.6018 31.5093 38.9143 31.8218C39.2269 32.1344 39.4025 32.5583 39.4025 33.0003V35.5003C39.4025 35.7213 39.3147 35.9333 39.1584 36.0896C39.0021 36.2459 38.7902 36.3337 38.5692 36.3337C38.3481 36.3337 38.1362 36.2459 37.9799 36.0896C37.8236 35.9333 37.7358 35.7213 37.7358 35.5003V33.0003H36.7158C36.3713 33.9759 35.7327 34.8207 34.8881 35.4182C34.0434 36.0157 33.0342 36.3366 31.9996 36.3366C30.9649 36.3366 29.9558 36.0157 29.1111 35.4182C28.2664 34.8207 27.6278 33.9759 27.2833 33.0003H26.1667V35.5003C26.1667 35.7213 26.0789 35.9333 25.9226 36.0896C25.7663 36.2459 25.5543 36.3337 25.3333 36.3337C25.1123 36.3337 24.9003 36.2459 24.7441 36.0896C24.5878 35.9333 24.5 35.7213 24.5 35.5003V33.0003C24.5 32.5583 24.6756 32.1344 24.9881 31.8218C25.3007 31.5093 25.7246 31.3337 26.1667 31.3337H27V30.5003H24.5C24.279 30.5003 24.067 30.4125 23.9107 30.2563C23.7545 30.1 23.6667 29.888 23.6667 29.667C23.6667 29.446 23.7545 29.234 23.9107 29.0777C24.067 28.9215 24.279 28.8337 24.5 28.8337H27V28.0003H26.1667C25.7246 28.0003 25.3007 27.8247 24.9881 27.5122C24.6756 27.1996 24.5 26.7757 24.5 26.3337V23.8337C24.5 23.6126 24.5878 23.4007 24.7441 23.2444C24.9003 23.0881 25.1123 23.0003 25.3333 23.0003C25.5543 23.0003 25.7663 23.0881 25.9226 23.2444C26.0789 23.4007 26.1667 23.6126 26.1667 23.8337V26.3337H27.6367C27.9164 26.0202 28.2707 25.7823 28.6667 25.642V23.8337C28.6667 23.3916 28.8423 22.9677 29.1548 22.6551C29.4674 22.3426 29.8913 22.167 30.3333 22.167H30.9475C30.6617 21.6687 30.1242 21.3337 29.5092 21.3337H27.8333C27.6123 21.3337 27.4003 21.2459 27.2441 21.0896C27.0878 20.9333 27 20.7213 27 20.5003C27 20.2793 27.0878 20.0674 27.2441 19.9111C27.4003 19.7548 27.6123 19.667 27.8333 19.667H29.5083C29.9796 19.6665 30.4456 19.7664 30.8752 19.9601C31.3049 20.1538 31.6883 20.4368 32 20.7903C32.3117 20.4368 32.6951 20.1538 33.1247 19.9601C33.5544 19.7664 34.0204 19.6665 34.4917 19.667H36.1667C36.3877 19.667 36.5996 19.7548 36.7559 19.9111C36.9122 20.0674 37 20.2793 37 20.5003C37 20.7213 36.9122 20.9333 36.7559 21.0896C36.5996 21.2459 36.3877 21.3337 36.1667 21.3337H34.4917C33.875 21.3337 33.3383 21.6687 33.0525 22.167H33.6667C34.1087 22.167 34.5326 22.3426 34.8452 22.6551C35.1577 22.9677 35.3333 23.3916 35.3333 23.8337V25.642C35.7293 25.7823 36.0836 26.0202 36.3633 26.3337ZM30.3333 25.5003H33.6667V23.8337H30.3333V25.5003Z" fill="#F8F8F9"/>
</g>
<defs>
<filter id="filter0_d" x="0" y="0" width="64" height="64" filterUnits="userSpaceOnUse" color-interpolation-filters="sRGB">
<feFlood flood-opacity="0" result="BackgroundImageFix"/>
<feColorMatrix in="SourceAlpha" type="matrix" values="0 0 0 0 0 0 0 0 0 0 0 0 0 0 0 0 0 0 127 0" result="hardAlpha"/>
<feOffset dy="4"/>
<feGaussianBlur stdDeviation="6"/>
<feComposite in2="hardAlpha" operator="out"/>
<feColorMatrix type="matrix" values="0 0 0 0 0 0 0 0 0 0.666667 0 0 0 0 1 0 0 0 0.25 0"/>
<feBlend mode="normal" in2="BackgroundImageFix" result="effect1_dropShadow"/>
<feBlend mode="normal" in="SourceGraphic" in2="effect1_dropShadow" result="shape"/>
</filter>
<linearGradient id="paint0_linear" x1="32" y1="2.5" x2="32" y2="48" gradientUnits="userSpaceOnUse">
<stop stop-color="#71A1FF"/>
<stop offset="1" stop-color="#00AAFF"/>
</linearGradient>
</defs>
</svg>
