<svg width="64" height="64" viewBox="0 0 64 64" fill="none" xmlns="http://www.w3.org/2000/svg">
<g filter="url(#filter0_d)">
<rect x="12" y="8" width="40" height="40" rx="8" fill="url(#paint0_linear)"/>
<path d="M27.8333 19.667H36.1667C36.8297 19.667 37.4656 19.9304 37.9344 20.3992C38.4033 20.8681 38.6667 21.504 38.6667 22.167V33.8337C38.6667 34.4967 38.4033 35.1326 37.9344 35.6014C37.4656 36.0703 36.8297 36.3337 36.1667 36.3337H27.8333C27.1703 36.3337 26.5344 36.0703 26.0656 35.6014C25.5967 35.1326 25.3333 34.4967 25.3333 33.8337V22.167C25.3333 21.504 25.5967 20.8681 26.0656 20.3992C26.5344 19.9304 27.1703 19.667 27.8333 19.667ZM27.8333 21.3337C27.6123 21.3337 27.4004 21.4215 27.2441 21.5777C27.0878 21.734 27 21.946 27 22.167V33.8337C27 34.0547 27.0878 34.2666 27.2441 34.4229C27.4004 34.5792 27.6123 34.667 27.8333 34.667H36.1667C36.3877 34.667 36.5996 34.5792 36.7559 34.4229C36.9122 34.2666 37 34.0547 37 33.8337V22.167C37 21.946 36.9122 21.734 36.7559 21.5777C36.5996 21.4215 36.3877 21.3337 36.1667 21.3337H27.8333ZM29.5 22.167H34.5C34.721 22.167 34.933 22.2548 35.0892 22.4111C35.2455 22.5674 35.3333 22.7793 35.3333 23.0003C35.3333 23.2213 35.2455 23.4333 35.0892 23.5896C34.933 23.7459 34.721 23.8337 34.5 23.8337H29.5C29.279 23.8337 29.067 23.7459 28.9107 23.5896C28.7545 23.4333 28.6667 23.2213 28.6667 23.0003C28.6667 22.7793 28.7545 22.5674 28.9107 22.4111C29.067 22.2548 29.279 22.167 29.5 22.167ZM29.5 32.167H31.1667C31.3877 32.167 31.5996 32.2548 31.7559 32.4111C31.9122 32.5674 32 32.7793 32 33.0003C32 33.2213 31.9122 33.4333 31.7559 33.5896C31.5996 33.7459 31.3877 33.8337 31.1667 33.8337H29.5C29.279 33.8337 29.067 33.7459 28.9107 33.5896C28.7545 33.4333 28.6667 33.2213 28.6667 33.0003C28.6667 32.7793 28.7545 32.5674 28.9107 32.4111C29.067 32.2548 29.279 32.167 29.5 32.167ZM29.5 28.8337H34.5C34.721 28.8337 34.933 28.9215 35.0892 29.0777C35.2455 29.234 35.3333 29.446 35.3333 29.667C35.3333 29.888 35.2455 30.1 35.0892 30.2562C34.933 30.4125 34.721 30.5003 34.5 30.5003H29.5C29.279 30.5003 29.067 30.4125 28.9107 30.2562C28.7545 30.1 28.6667 29.888 28.6667 29.667C28.6667 29.446 28.7545 29.234 28.9107 29.0777C29.067 28.9215 29.279 28.8337 29.5 28.8337ZM29.5 25.5003H34.5C34.721 25.5003 34.933 25.5881 35.0892 25.7444C35.2455 25.9007 35.3333 26.1126 35.3333 26.3337C35.3333 26.5547 35.2455 26.7666 35.0892 26.9229C34.933 27.0792 34.721 27.167 34.5 27.167H29.5C29.279 27.167 29.067 27.0792 28.9107 26.9229C28.7545 26.7666 28.6667 26.5547 28.6667 26.3337C28.6667 26.1126 28.7545 25.9007 28.9107 25.7444C29.067 25.5881 29.279 25.5003 29.5 25.5003Z" fill="#F8F8F9"/>
</g>
<defs>
<filter id="filter0_d" x="0" y="0" width="64" height="64" filterUnits="userSpaceOnUse" color-interpolation-filters="sRGB">
<feFlood flood-opacity="0" result="BackgroundImageFix"/>
<feColorMatrix in="SourceAlpha" type="matrix" values="0 0 0 0 0 0 0 0 0 0 0 0 0 0 0 0 0 0 127 0" result="hardAlpha"/>
<feOffset dy="4"/>
<feGaussianBlur stdDeviation="6"/>
<feComposite in2="hardAlpha" operator="out"/>
<feColorMatrix type="matrix" values="0 0 0 0 0.182022 0 0 0 0 0.6 0 0 0 0 0.424719 0 0 0 0.25 0"/>
<feBlend mode="normal" in2="BackgroundImageFix" result="effect1_dropShadow"/>
<feBlend mode="normal" in="SourceGraphic" in2="effect1_dropShadow" result="shape"/>
</filter>
<linearGradient id="paint0_linear" x1="32" y1="8" x2="32" y2="48" gradientUnits="userSpaceOnUse">
<stop stop-color="#45E6A2"/>
<stop offset="1" stop-color="#36B37E"/>
</linearGradient>
</defs>
</svg>
